<?xml version="1.0" standalone="no"?>
<!DOCTYPE svg PUBLIC "-//W3C//DTD SVG 1.1//EN" "http://www.w3.org/Graphics/SVG/1.1/DTD/svg11.dtd" >
<svg xmlns="http://www.w3.org/2000/svg">
<metadata>Generated by IcoMoon</metadata>
<defs>
<font id="icomoon" horiz-adv-x="1024">
<font-face units-per-em="1024" ascent="960" descent="-64" />
<missing-glyph horiz-adv-x="1024" />
<glyph unicode="&#x20;" horiz-adv-x="512" d="" />
<glyph unicode="&#xe900;" glyph-name="anchor" d="M780.8 384c-14.080 0-25.6-11.52-25.6-25.6s11.52-25.6 25.6-25.6h64c-17.92-157.44-148.48-282.88-307.2-294.4v460.8h89.6c14.080 0 25.6 11.52 25.6 25.6s-11.52 25.6-25.6 25.6h-89.6v102.4c58.88 11.52 102.4 66.56 102.4 128 0 70.4-57.6 128-128 128s-128-57.6-128-128c0-61.44 43.52-116.48 102.4-128v-102.4h-89.6c-14.080 0-25.6-11.52-25.6-25.6s11.52-25.6 25.6-25.6h89.6v-460.8c-158.72 11.52-289.28 136.96-307.2 294.4h64c14.080 0 25.6 11.52 25.6 25.6s-11.52 25.6-25.6 25.6h-115.2v-51.2c19.2-194.56 184.32-345.6 384-345.6s364.8 151.040 384 345.6v51.2h-115.2zM435.2 780.8c0 42.24 34.56 76.8 76.8 76.8s76.8-34.56 76.8-76.8-34.56-76.8-76.8-76.8c-42.24 0-76.8 34.56-76.8 76.8z" />
<glyph unicode="&#xe901;" glyph-name="check" d="M686.080 593.92l-238.080-238.080-97.28 97.28c-10.24 10.24-25.6 10.24-35.84 0s-10.24-25.6 0-35.84l115.2-115.2c10.24-10.24 25.6-10.24 35.84 0 1.28 1.28 1.28 1.28 2.56 2.56l253.44 253.44c10.24 10.24 10.24 25.6 0 35.84s-25.6 10.24-35.84 0zM512 908.8c-254.72 0-460.8-206.080-460.8-460.8s206.080-460.8 460.8-460.8 460.8 206.080 460.8 460.8-206.080 460.8-460.8 460.8zM512 38.4c-226.56 0-409.6 183.040-409.6 409.6s183.040 409.6 409.6 409.6 409.6-183.040 409.6-409.6-183.040-409.6-409.6-409.6z" />
<glyph unicode="&#xe902;" glyph-name="close" d="M965.12 30.72l-417.28 417.28 417.28 417.28c5.12 5.12 7.68 11.52 7.68 17.92 0 14.080-11.52 25.6-25.6 25.6-7.68 0-14.080-2.56-17.92-7.68l-417.28-417.28-417.28 417.28c-3.84 5.12-10.24 7.68-17.92 7.68-14.080 0-25.6-11.52-25.6-25.6 0-7.68 2.56-14.080 7.68-17.92l417.28-417.28-417.28-417.28c-5.12-3.84-7.68-10.24-7.68-17.92 0-14.080 11.52-25.6 25.6-25.6 7.68 0 14.080 2.56 17.92 7.68l417.28 417.28 417.28-417.28c5.12-5.12 11.52-7.68 17.92-7.68 14.080 0 25.6 11.52 25.6 25.6 0 7.68-2.56 14.080-7.68 17.92z" />
<glyph unicode="&#xe903;" glyph-name="compass" d="M512 908.8c-254.72 0-460.8-206.080-460.8-460.8s206.080-460.8 460.8-460.8 460.8 206.080 460.8 460.8-206.080 460.8-460.8 460.8zM537.6 39.68v49.92c0 14.080-11.52 25.6-25.6 25.6s-25.6-11.52-25.6-25.6v-49.92c-206.080 12.8-369.92 177.92-382.72 382.72h49.92c14.080 0 25.6 11.52 25.6 25.6s-11.52 25.6-25.6 25.6h-49.92c12.8 206.080 177.92 369.92 382.72 382.72v-49.92c0-14.080 11.52-25.6 25.6-25.6s25.6 11.52 25.6 25.6v49.92c206.080-12.8 369.92-177.92 382.72-382.72h-49.92c-14.080 0-25.6-11.52-25.6-25.6s11.52-25.6 25.6-25.6h49.92c-12.8-206.080-176.64-369.92-382.72-382.72zM706.56 675.84l-281.6-128c-5.12-2.56-10.24-7.68-12.8-12.8l-128-281.6c-3.84-10.24-2.56-21.76 5.12-28.16 5.12-5.12 11.52-7.68 17.92-7.68 3.84 0 7.68 1.28 10.24 2.56l281.6 128c5.12 2.56 10.24 7.68 12.8 12.8l128 281.6c3.84 10.24 2.56 21.76-5.12 28.16-7.68 7.68-19.2 10.24-28.16 5.12zM569.6 390.4l-211.2-96 96 211.2 211.2 96-96-211.2zM550.4 448c0-21.208-17.192-38.4-38.4-38.4s-38.4 17.192-38.4 38.4c0 21.208 17.192 38.4 38.4 38.4s38.4-17.192 38.4-38.4z" />
<glyph unicode="&#xe904;" glyph-name="dropdown" d="M965.12 478.72c-10.24 10.24-25.6 10.24-35.84 0l-417.28-417.28-417.28 417.28c-10.24 10.24-25.6 10.24-35.84 0s-10.24-25.6 0-35.84l435.2-435.2c10.24-10.24 25.6-10.24 35.84 0l435.2 435.2c10.24 10.24 10.24 25.6 0 35.84z" />
<glyph unicode="&#xe905;" glyph-name="email" d="M947.2 742.4h-870.4c-14.080 0-25.6-11.52-25.6-25.6v-537.6c0-14.080 11.52-25.6 25.6-25.6h870.4c14.080 0 25.6 11.52 25.6 25.6v537.6c0 14.080-11.52 25.6-25.6 25.6zM884.48 691.2l-372.48-373.76-373.76 373.76h746.24zM102.4 655.36l194.56-194.56c-72.96-72.96-148.48-148.48-194.56-194.56v389.12zM112.64 204.8c38.4 38.4 133.12 133.12 220.16 220.16l161.28-161.28c10.24-10.24 25.6-10.24 35.84 0l161.28 161.28c87.040-87.040 181.76-181.76 220.16-220.16h-798.72zM921.6 266.24c-46.080 46.080-121.6 121.6-194.56 194.56l194.56 194.56v-389.12z" />
<glyph unicode="&#xe906;" glyph-name="facebook" d="M601.6 704c-10.24 0-64 0-64 0-64 0-102.4-39.68-102.4-115.2v-51.2h-64c-6.4 0-12.8-6.4-12.8-14.080v-78.080c0-5.12 3.84-10.24 10.24-10.24h66.56v-192c0-7.68 5.12-12.8 12.8-12.8h76.8c6.4 0 12.8 6.4 12.8 12.8v192h64c6.4 0 12.8 5.12 12.8 12.8v75.52c0 7.68-6.4 14.080-12.8 14.080h-64v51.2c0 12.8-1.28 25.6 12.8 25.6h51.2c7.68 0 12.8 5.12 12.8 12.8v64c0 7.68-6.4 12.8-12.8 12.8z" />
<glyph unicode="&#xe907;" glyph-name="floater" d="M512 908.8c-254.72 0-460.8-206.080-460.8-460.8s206.080-460.8 460.8-460.8 460.8 206.080 460.8 460.8-206.080 460.8-460.8 460.8zM512 857.6c106.24 0 202.24-39.68 275.2-106.24l-145.92-144.64c-34.56 28.16-80.64 46.080-129.28 46.080-47.36 0-90.88-16.64-125.44-43.52l-145.92 145.92c71.68 64 166.4 102.4 271.36 102.4zM665.6 448c0-84.48-69.12-153.6-153.6-153.6s-153.6 69.12-153.6 153.6 69.12 153.6 153.6 153.6 153.6-69.12 153.6-153.6zM102.4 448c0 103.68 38.4 198.4 102.4 271.36l145.92-145.92c-26.88-34.56-43.52-78.080-43.52-125.44 0-48.64 17.92-94.72 46.080-129.28l-144.64-145.92c-66.56 72.96-106.24 168.96-106.24 275.2zM512 38.4c-102.4 0-194.56 37.12-266.24 98.56l145.92 145.92c34.56-25.6 75.52-39.68 121.6-39.68 47.36 0 90.88 16.64 125.44 43.52l144.64-145.92c-71.68-64-166.4-102.4-271.36-102.4zM819.2 176.64l-145.92 145.92c26.88 34.56 43.52 78.080 43.52 125.44 0 44.8-15.36 87.040-39.68 121.6l145.92 144.64c61.44-71.68 98.56-163.84 98.56-266.24 0-103.68-38.4-198.4-102.4-271.36z" />
<glyph unicode="&#xe908;" glyph-name="success" d="M918.497 795.429l-577.164-566.857-235.83 231.619c-24.824 24.381-62.061 24.381-86.885 0s-24.824-60.952 0-85.333l279.273-274.286c24.824-24.381 62.061-24.381 86.885 0 3.103 3.048 3.103 3.048 6.206 6.095l614.4 603.429c24.824 24.381 24.824 60.952 0 85.333s-62.061 24.381-86.885 0z" />
<glyph unicode="&#xe909;" glyph-name="heart" d="M704 857.6c120.32 0 217.6-97.28 217.6-217.6v0c0-2.56 10.24-282.88-409.6-588.8-124.16 90.88-277.76 227.84-359.68 401.92-52.48 110.080-49.92 186.88-49.92 186.88v0c0 120.32 97.28 217.6 217.6 217.6 58.88 0 112.64-21.76 153.6-64l38.4-38.4 38.4 38.4c40.96 42.24 94.72 64 153.6 64zM704 908.8c-75.52 0-143.36-26.88-192-76.8-48.64 49.92-116.48 76.8-192 76.8-148.48 0-268.8-120.32-268.8-268.8 0 0-17.92-320 460.8-652.8 478.72 332.8 460.8 652.8 460.8 652.8 0 148.48-120.32 268.8-268.8 268.8v0z" />
<glyph unicode="&#xe90a;" glyph-name="instagram" horiz-adv-x="724" d="M160.26 719.494h403.527c37.551 0.958 68.773-28.705 69.731-66.256 0.030-1.158 0.030-2.315 0-3.475v-403.527c0.958-37.551-28.705-68.773-66.256-69.731-1.158-0.030-2.317-0.030-3.475 0h-403.527c-37.551-0.958-68.773 28.705-69.731 66.259-0.030 1.158-0.030 2.315 0 3.475v403.525c-0.958 37.551 28.705 68.773 66.256 69.731 1.159 0.029 2.317 0.029 3.475 0zM486.051 659.194c-13.327-0.234-24.008-11.105-24.006-24.433v-58.158c0.079-13.462 10.974-24.357 24.433-24.433h61.3c13.351 0.234 24.073 11.083 24.147 24.433v58.158c-0.075 13.353-10.798 24.202-24.147 24.433h-61.727zM571.788 489.868h-47.44c4.638-15.092 6.997-30.793 7.002-46.582-3.836-93.202-82.501-165.646-175.701-161.811-87.824 3.615-158.195 73.986-161.809 161.809 0.002 15.79 2.362 31.49 7.002 46.582h-50.012v-229.342c0.077-11.883 9.692-21.498 21.577-21.577h378.234c11.916 0 21.577 9.66 21.577 21.577v229.343h-0.431zM362.023 554.883c-58.371-1.815-104.217-50.605-102.404-108.975 1.815-58.371 50.605-104.217 108.975-102.404 57.126 1.776 102.502 48.626 102.454 105.78-1.017 59.237-49.787 106.475-109.025 105.599z" />
<glyph unicode="&#xe90b;" glyph-name="left-arrow" d="M965.12 465.92c-5.12 5.12-11.52 7.68-17.92 7.68h-808.96l46.080 46.080c10.24 10.24 10.24 25.6 0 35.84s-25.6 10.24-35.84 0v0l-89.6-89.6c-10.24-10.24-10.24-25.6 0-35.84l89.6-89.6c10.24-10.24 25.6-10.24 35.84 0s10.24 25.6 0 35.84l-46.080 46.080h808.96c6.4 0 12.8 2.56 17.92 7.68 10.24 10.24 10.24 25.6 0 35.84z" />
<glyph unicode="&#xe90c;" d="M998.4 448c0-268.631-217.769-486.4-486.4-486.4s-486.4 217.769-486.4 486.4c0 268.631 217.769 486.4 486.4 486.4s486.4-217.769 486.4-486.4z" />
<glyph unicode="&#xe90d;" d="M682.24 408.32c-8.96 0-16.64-7.68-16.64-15.36 0-8.96 7.68-15.36 16.64-15.36h40.96c-11.52-96-94.72-172.8-194.56-180.48v281.6h56.32c8.96 0 16.64 7.68 16.64 15.36s-7.68 15.36-16.64 15.36h-56.32v64c37.12 6.4 65.28 40.96 65.28 78.080-1.28 42.24-37.12 78.080-81.92 78.080s-80.64-35.84-80.64-78.080c0-37.12 28.16-71.68 65.28-78.080v-62.72h-56.32c-8.96 0-16.64-7.68-16.64-15.36s7.68-15.36 16.64-15.36h56.32v-281.6c-101.12 6.4-184.32 83.2-195.84 179.2h40.96c8.96 0 16.64 7.68 16.64 15.36 0 8.96-7.68 15.36-16.64 15.36h-72.96v-30.72c12.8-119.040 116.48-211.2 243.2-211.2s231.68 92.16 243.2 211.2v30.72h-72.96zM463.36 651.52c0 25.6 21.76 47.36 48.64 47.36s48.64-20.48 48.64-47.36-21.76-47.36-48.64-47.36c-26.88 0-48.64 21.76-48.64 47.36z" />
<glyph unicode="&#xe90e;" d="M512-32c-264.96 0-480 215.040-480 480s215.040 480 480 480 480-215.040 480-480-215.040-480-480-480z" />
<glyph unicode="&#xe90f;" d="M512 921.6c261.12 0 473.6-212.48 473.6-473.6s-212.48-473.6-473.6-473.6-473.6 212.48-473.6 473.6 212.48 473.6 473.6 473.6zM512 934.4c-268.8 0-486.4-217.6-486.4-486.4s217.6-486.4 486.4-486.4 486.4 217.6 486.4 486.4-217.6 486.4-486.4 486.4v0z" />
<glyph unicode="&#xe910;" d="M682.24 408.32c-8.96 0-16.64-7.68-16.64-15.36 0-8.96 7.68-15.36 16.64-15.36h40.96c-11.52-96-94.72-172.8-194.56-180.48v281.6h56.32c8.96 0 16.64 7.68 16.64 15.36s-7.68 15.36-16.64 15.36h-56.32v64c37.12 6.4 65.28 40.96 65.28 78.080-1.28 42.24-37.12 78.080-81.92 78.080s-80.64-35.84-80.64-78.080c0-37.12 28.16-71.68 65.28-78.080v-62.72h-56.32c-8.96 0-16.64-7.68-16.64-15.36s7.68-15.36 16.64-15.36h56.32v-281.6c-101.12 6.4-184.32 83.2-195.84 179.2h40.96c8.96 0 16.64 7.68 16.64 15.36 0 8.96-7.68 15.36-16.64 15.36h-72.96v-30.72c12.8-119.040 116.48-211.2 243.2-211.2s231.68 92.16 243.2 211.2v30.72h-72.96zM463.36 651.52c0 25.6 21.76 47.36 48.64 47.36s48.64-20.48 48.64-47.36-21.76-47.36-48.64-47.36c-26.88 0-48.64 21.76-48.64 47.36z" />
<glyph unicode="&#xe911;" d="M512-25.6c-261.12 0-473.6 212.48-473.6 473.6s212.48 473.6 473.6 473.6c261.12 0 473.6-212.48 473.6-473.6s-212.48-473.6-473.6-473.6z" />
<glyph unicode="&#xe912;" d="M512 908.8c254.72 0 460.8-206.080 460.8-460.8s-206.080-460.8-460.8-460.8-460.8 206.080-460.8 460.8 206.080 460.8 460.8 460.8zM512 934.4c-268.8 0-486.4-217.6-486.4-486.4s217.6-486.4 486.4-486.4 486.4 217.6 486.4 486.4-217.6 486.4-486.4 486.4v0z" />
<glyph unicode="&#xe913;" d="M682.24 408.32c-8.96 0-16.64-7.68-16.64-15.36 0-8.96 7.68-15.36 16.64-15.36h40.96c-11.52-96-94.72-172.8-194.56-180.48v281.6h56.32c8.96 0 16.64 7.68 16.64 15.36s-7.68 15.36-16.64 15.36h-56.32v64c37.12 6.4 65.28 40.96 65.28 78.080-1.28 42.24-37.12 78.080-81.92 78.080s-80.64-35.84-80.64-78.080c0-37.12 28.16-71.68 65.28-78.080v-62.72h-56.32c-8.96 0-16.64-7.68-16.64-15.36s7.68-15.36 16.64-15.36h56.32v-281.6c-101.12 6.4-184.32 83.2-195.84 179.2h40.96c8.96 0 16.64 7.68 16.64 15.36 0 8.96-7.68 15.36-16.64 15.36h-72.96v-30.72c12.8-119.040 116.48-211.2 243.2-211.2s231.68 92.16 243.2 211.2v30.72h-72.96zM463.36 651.52c0 25.6 21.76 47.36 48.64 47.36s48.64-20.48 48.64-47.36-21.76-47.36-48.64-47.36c-26.88 0-48.64 21.76-48.64 47.36z" />
<glyph unicode="&#xe914;" glyph-name="marina-logo" d="M567.783 370.783l-56.88 41.336-56.88-41.336 21.719 66.87-56.854 41.31h70.295l21.719 66.87 21.719-66.87h70.295l-56.88-41.31 21.745-66.87zM970.818 505.068c-9.86 81.712-41.388 161.323-94.635 229.36l-80.7-80.7c32.306-44.865 52.598-95.699 61.109-148.089h-197.885c-7.862 20.525-19.851 39.39-35.861 55.4-37.911 37.911-90.431 52.442-139.63 43.775l-102.030 169.834c40.739 16.244 84.541 24.885 129.717 24.885 74.499 0 145.416-23.146 204.657-65.936l80.7 80.7c-66.558 52.209-145.39 84.878-229.386 94.946-2.958 28.466-26.727 50.756-55.971 50.756s-53.013-22.29-55.945-50.756c-84.022-10.068-162.854-42.737-229.412-94.946l-0.078-0.052 160.83-267.661c-9.835-12.533-17.593-26.286-23.198-40.947h-197.885c8.511 52.39 28.803 103.224 61.083 148.089l-80.7 80.7c-53.221-68.037-84.748-147.622-94.609-229.36-28.595-2.828-50.989-26.649-50.989-55.971s22.394-53.143 50.989-55.997c9.861-81.712 41.388-161.297 94.609-229.334l80.7 80.7c-32.28 44.865-52.572 95.699-61.083 148.089h197.885c-0.026 0.026-0.026 0.052-0.026 0.078 7.837-20.551 19.851-39.468 35.887-55.478 30.853-30.853 71.385-46.292 111.943-46.292 9.212 0 18.424 0.908 27.532 2.517l102.108-169.938c-109.27-43.334-236.055-29.737-334.271 40.947l-80.7-80.7c68.037-53.221 147.622-84.852 229.36-94.739 2.932-28.466 26.727-50.756 55.971-50.756s53.013 22.29 55.945 50.756c81.738 9.886 161.323 41.492 229.386 94.739l0.078 0.052-160.856 267.713c-0.182-0.234-0.389-0.441-0.571-0.675 10.146 12.767 18.112 26.857 23.847 41.881-0.026-0.052-0.026-0.078-0.026-0.104h197.885c-8.511-52.39-28.803-103.224-61.109-148.089l80.7-80.7c53.247 68.037 84.774 147.622 94.635 229.334 28.57 2.828 50.989 26.649 50.989 55.971 0 29.348-22.42 53.169-50.989 55.997v0z" />
<glyph unicode="&#xe915;" glyph-name="minus" d="M965.12 465.92c-5.12 5.12-11.52 7.68-17.92 7.68h-870.4c-6.4 0-12.8-2.56-17.92-7.68-10.24-10.24-10.24-25.6 0-35.84 5.12-5.12 11.52-7.68 17.92-7.68h870.4c6.4 0 12.8 2.56 17.92 7.68 10.24 10.24 10.24 25.6 0 35.84z" />
<glyph unicode="&#xe916;" glyph-name="more" d="M965.12 465.92c-5.12 5.12-11.52 7.68-17.92 7.68h-409.6v409.6c0 6.4-2.56 12.8-7.68 17.92-10.24 10.24-25.6 10.24-35.84 0-5.12-5.12-7.68-11.52-7.68-17.92v-409.6h-409.6c-6.4 0-12.8-2.56-17.92-7.68-10.24-10.24-10.24-25.6 0-35.84 5.12-5.12 11.52-7.68 17.92-7.68h409.6v-409.6c0-6.4 2.56-12.8 7.68-17.92 10.24-10.24 25.6-10.24 35.84 0 5.12 5.12 7.68 11.52 7.68 17.92v409.6h409.6c6.4 0 12.8 2.56 17.92 7.68 10.24 10.24 10.24 25.6 0 35.84z" />
<glyph unicode="&#xe917;" glyph-name="pin" d="M783.36 797.44c-74.24 74.24-172.8 111.36-271.36 111.36s-197.12-37.12-271.36-111.36c-149.76-148.48-149.76-390.4 0-540.16l271.36-270.080 271.36 270.080c149.76 148.48 149.76 390.4 0 540.16zM747.52 293.12l-235.52-234.24-235.52 234.24c-62.72 62.72-97.28 145.92-97.28 234.24s34.56 171.52 97.28 234.24c62.72 61.44 147.2 96 235.52 96s172.8-34.56 235.52-97.28c62.72-61.44 97.28-144.64 97.28-232.96s-34.56-171.52-97.28-234.24zM512 704c-98.56 0-179.2-80.64-179.2-179.2s80.64-179.2 179.2-179.2 179.2 80.64 179.2 179.2-80.64 179.2-179.2 179.2zM512 396.8c-70.4 0-128 57.6-128 128s57.6 128 128 128 128-57.6 128-128-57.6-128-128-128z" />
<glyph unicode="&#xe918;" glyph-name="refresh" d="M908.8 454.4c0-14.080-11.52-25.6-25.6-25.6s-25.6 11.52-25.6 25.6c0 190.72-154.88 345.6-345.6 345.6-70.4 0-138.24-21.76-195.84-61.44l104.96-57.6c12.8-6.4 16.64-21.76 10.24-34.56-5.12-8.96-12.8-12.8-23.040-12.8-3.84 0-8.96 1.28-12.8 2.56l-154.88 87.040 42.24 185.6c2.56 14.080 16.64 21.76 30.72 19.2s21.76-16.64 19.2-30.72l-23.040-101.12c61.44 35.84 131.84 56.32 203.52 56.32 217.6-1.28 395.52-179.2 395.52-398.080zM601.6 259.84c-12.8 6.4-28.16 2.56-34.56-10.24s-2.56-28.16 10.24-34.56l108.8-58.88c-52.48-30.72-111.36-46.080-172.8-46.080-190.72 0-345.6 154.88-345.6 345.6 0 14.080-11.52 25.6-25.6 25.6s-25.6-11.52-25.6-25.6c0-218.88 177.92-396.8 396.8-396.8 62.72 0 122.88 14.080 177.92 42.24l-23.040-99.84c-2.56-14.080 5.12-28.16 19.2-30.72 2.56 0 3.84-1.28 6.4-1.28 11.52 0 21.76 7.68 24.32 19.2l42.24 185.6-158.72 85.76z" />
<glyph unicode="&#xe919;" glyph-name="remove" d="M234.667 817.778h64v49.778c0 51.056 51.042 92.444 113.778 92.444h199.11c62.838 0 113.778-41.493 113.778-92.444v-49.778h213.333c15.709 0 28.444-12.735 28.444-28.444s-12.735-28.444-28.444-28.444h-85.333v-711.192c0-62.793-51.032-113.697-113.879-113.697h-454.909c-62.893 0-113.879 50.897-113.879 113.697v711.192h-85.333c-15.709 0-28.444 12.735-28.444 28.444s12.735 28.444 28.444 28.444h149.333zM355.556 817.778h312.889v35.556c0 27.427-25.524 49.778-56.889 49.778h-199.11c-31.36 0-56.889-22.324-56.889-49.778v-35.556zM227.556 49.697c0-31.358 25.492-56.808 56.99-56.808h454.909c31.468 0 56.99 25.474 56.99 56.808v711.192h-568.889v-711.192zM341.333 590.222c0 15.709 12.735 28.444 28.444 28.444s28.444-12.735 28.444-28.444v-426.667c0-15.709-12.735-28.444-28.444-28.444s-28.444 12.735-28.444 28.444v426.667zM483.556 590.222c0 15.709 12.735 28.444 28.444 28.444s28.444-12.735 28.444-28.444v-426.667c0-15.709-12.735-28.444-28.444-28.444s-28.444 12.735-28.444 28.444v426.667zM625.778 590.222c0 15.709 12.735 28.444 28.444 28.444s28.444-12.735 28.444-28.444v-426.667c0-15.709-12.735-28.444-28.444-28.444s-28.444 12.735-28.444 28.444v426.667z" />
<glyph unicode="&#xe91a;" glyph-name="right-arrow" d="M965.12 465.92l-89.6 89.6c-10.24 10.24-25.6 10.24-35.84 0s-10.24-25.6 0-35.84l46.080-46.080h-808.96c-6.4 0-12.8-2.56-17.92-7.68-10.24-10.24-10.24-25.6 0-35.84 5.12-5.12 11.52-7.68 17.92-7.68h808.96l-46.080-46.080c-10.24-10.24-10.24-25.6 0-35.84s25.6-10.24 35.84 0l89.6 89.6c10.24 10.24 10.24 25.6 0 35.84z" />
<glyph unicode="&#xe91b;" glyph-name="search" d="M965.12 30.72l-218.88 218.88c136.96 156.16 131.84 394.24-17.92 542.72-76.8 78.080-179.2 116.48-280.32 116.48s-203.52-38.4-280.32-116.48c-154.88-154.88-154.88-405.76 0-560.64 76.8-78.080 179.2-116.48 280.32-116.48 93.44 0 186.88 33.28 262.4 98.56l218.88-218.88c10.24-10.24 25.6-10.24 35.84 0s10.24 25.6 0 35.84zM692.48 267.52c-65.28-65.28-152.32-101.12-244.48-101.12s-179.2 35.84-244.48 101.12c-134.4 134.4-134.4 354.56 0 488.96 65.28 65.28 152.32 101.12 244.48 101.12s179.2-35.84 244.48-101.12c134.4-134.4 134.4-354.56 0-488.96z" />
<glyph unicode="&#xe91c;" glyph-name="send" d="M901.12 849.92c-7.68 7.68-17.92 8.96-28.16 5.12l-755.2-299.52c-8.96-3.84-15.36-12.8-16.64-23.040 0-10.24 5.12-19.2 14.080-24.32l294.4-149.76 149.76-293.12c1.28-2.56 2.56-5.12 5.12-6.4 5.12-5.12 11.52-7.68 19.2-7.68 10.24 0 19.2 6.4 23.040 16.64l299.52 755.2c5.12 8.96 2.56 19.2-5.12 26.88zM190.72 528.64l583.68 230.4-345.6-345.6-238.080 115.2zM579.84 139.52l-115.2 238.080 345.6 345.6-230.4-583.68zM373.76 322.56c-10.24 10.24-26.88 10.24-35.84 0l-163.84-163.84c-10.24-10.24-10.24-26.88 0-35.84 10.24-10.24 26.88-10.24 35.84 0l163.84 163.84c10.24 8.96 10.24 25.6 0 35.84zM373.76 213.76l-90.88-90.88c-10.24-10.24-10.24-26.88 0-35.84 10.24-10.24 26.88-10.24 35.84 0l90.88 90.88c10.24 10.24 10.24 26.88 0 35.84-8.96 10.24-25.6 10.24-35.84 0zM209.92 267.52l55.040 55.040c10.24 10.24 10.24 26.88 0 35.84-10.24 10.24-26.88 10.24-35.84 0l-55.040-55.040c-10.24-10.24-10.24-26.88 0-35.84 8.96-10.24 25.6-10.24 35.84 0z" />
<glyph unicode="&#xe91d;" glyph-name="settings" d="M921.6 908.8h-819.2c-28.16 0-51.2-23.040-51.2-51.2v-819.2c0-28.16 23.040-51.2 51.2-51.2h819.2c28.16 0 51.2 23.040 51.2 51.2v819.2c0 28.16-23.040 51.2-51.2 51.2zM921.6 38.4h-819.2v819.2h819.2v-819.2zM230.4 652.8h25.6c11.52-37.12 48.64-64 89.6-64s78.080 26.88 89.6 64h358.4c14.080 0 25.6 11.52 25.6 25.6s-11.52 25.6-25.6 25.6h-358.4c-11.52 37.12-48.64 64-89.6 64s-78.080-26.88-89.6-64h-25.6c-14.080 0-25.6-11.52-25.6-25.6s11.52-25.6 25.6-25.6zM345.6 716.8c21.76 0 38.4-16.64 38.4-38.4s-16.64-38.4-38.4-38.4-38.4 16.64-38.4 38.4 16.64 38.4 38.4 38.4zM230.4 422.4h358.4c11.52-37.12 48.64-64 89.6-64s78.080 26.88 89.6 64h25.6c14.080 0 25.6 11.52 25.6 25.6s-11.52 25.6-25.6 25.6h-25.6c-11.52 37.12-48.64 64-89.6 64s-78.080-26.88-89.6-64h-358.4c-14.080 0-25.6-11.52-25.6-25.6s11.52-25.6 25.6-25.6zM678.4 486.4c21.76 0 38.4-16.64 38.4-38.4s-16.64-38.4-38.4-38.4-38.4 16.64-38.4 38.4 16.64 38.4 38.4 38.4zM230.4 192h115.2c11.52-37.12 48.64-64 89.6-64s78.080 26.88 89.6 64h268.8c14.080 0 25.6 11.52 25.6 25.6s-11.52 25.6-25.6 25.6h-268.8c-11.52 37.12-48.64 64-89.6 64s-78.080-26.88-89.6-64h-115.2c-14.080 0-25.6-11.52-25.6-25.6s11.52-25.6 25.6-25.6zM435.2 256c21.76 0 38.4-16.64 38.4-38.4s-16.64-38.4-38.4-38.4-38.4 16.64-38.4 38.4 16.64 38.4 38.4 38.4z" />
<glyph unicode="&#xe91e;" glyph-name="step2" d="M512-64c-282.317 0-512 229.683-512 512s229.683 512 512 512c282.317 0 512-229.683 512-512s-229.683-512-512-512zM512 925.867c-263.509 0-477.867-214.357-477.867-477.867s214.357-477.867 477.867-477.867 477.867 214.357 477.867 477.867-214.357 477.867-477.867 477.867zM634.231 277.333h-256.239v38.127l102.673 103.185c31.3 31.642 51.883 54.238 61.85 67.721s17.442 26.658 22.391 39.458 7.475 26.556 7.475 41.335c0 20.787-6.315 37.308-18.944 49.459s-30.106 18.261-52.531 18.261c-16.179 0-31.505-2.662-46.012-7.987s-30.618-15.019-48.401-29.082l-23.484 30.14c35.908 29.867 75.025 44.783 117.35 44.783 36.625 0 65.331-9.353 86.118-28.126s31.198-43.964 31.198-75.605c0-24.713-6.929-49.152-20.787-73.318s-39.834-54.75-77.858-91.75l-85.333-83.456v-2.116h200.533v-41.028z" />
<glyph unicode="&#xe91f;" glyph-name="twitter" d="M742.4 595.2c-16.64-7.68-34.56-12.8-53.76-15.36 19.2 11.52 34.56 30.72 40.96 53.76-17.92-11.52-38.4-19.2-60.16-23.040-16.64 17.92-42.24 29.44-69.12 29.44-52.48 0-94.72-43.52-94.72-97.28 0-7.68 1.28-15.36 2.56-21.76-78.080 3.84-147.2 42.24-194.56 101.12-7.68-14.080-12.8-30.72-12.8-48.64 0-33.28 16.64-62.72 42.24-80.64-15.36 0-29.44 5.12-42.24 12.8v-1.28c0-47.36 32-85.76 75.52-94.72-7.68-2.56-16.64-3.84-24.32-3.84-6.4 0-11.52 0-17.92 1.28 11.52-38.4 47.36-66.56 88.32-67.84-32-25.6-72.96-40.96-117.76-40.96-7.68 0-15.36 0-23.040 1.28 42.24-28.16 90.88-43.52 144.64-43.52 174.080 0 268.8 147.2 268.8 276.48v12.8c19.2 12.8 34.56 29.44 47.36 49.92z" />
<glyph unicode="&#xe920;" glyph-name="Upload" d="M0 438.898c0-136.434 111.779-246.898 249.498-246.898h122.59c15.709 0 28.444 12.735 28.444 28.444s-12.735 28.444-28.444 28.444h-122.59c-106.45 0-192.61 85.146-192.61 190.009 0 100.877 70.622 174.511 172.345 179.807 14.067 0.732 25.48 11.651 26.834 25.672 12.071 125.011 128.050 230.289 255.932 230.289 136.971 0 247.873-109.597 247.873-244.622v-40.96c0-15.709 12.735-28.444 28.444-28.444h20.724c87.374 0 158.070-69.864 158.070-155.876s-70.695-155.876-158.070-155.876h-153.995c-15.709 0-28.444-12.735-28.444-28.444s12.735-28.444 28.444-28.444h153.995c118.644 0 214.959 95.182 214.959 212.764s-96.315 212.764-214.959 212.764h-20.724v-28.444h28.444v40.96c0 166.596-136.521 301.511-304.762 301.511-149.143 0-283.263-114.824-309.304-258.288-119.362-16.691-202.696-111.063-202.696-234.37zM540.444 448.122l94.75-78.715c11.677-9.701 29.662-8.827 40.171 1.952s9.562 27.38-2.114 37.081l-142.222 118.154c-10.818 8.987-27.239 8.987-38.057 0l-142.222-118.154c-11.677-9.701-12.623-26.302-2.114-37.081s28.494-11.652 40.171-1.952l94.749 78.715v-449.217c0-19.032 12.735-34.46 28.444-34.46s28.444 15.428 28.444 34.46v449.218z" />
<glyph unicode="&#xe921;" glyph-name="warning" d="M512 908.8c-254.72 0-460.8-206.080-460.8-460.8s206.080-460.8 460.8-460.8 460.8 206.080 460.8 460.8-206.080 460.8-460.8 460.8zM512 38.4c-226.56 0-409.6 183.040-409.6 409.6s183.040 409.6 409.6 409.6 409.6-183.040 409.6-409.6-183.040-409.6-409.6-409.6zM512 704c-28.16 0-51.2-23.040-51.2-51.2l25.6-281.6c0-14.080 11.52-25.6 25.6-25.6s25.6 11.52 25.6 25.6l25.6 281.6c0 28.16-23.040 51.2-51.2 51.2zM563.2 243.2c0-28.277-22.923-51.2-51.2-51.2s-51.2 22.923-51.2 51.2c0 28.277 22.923 51.2 51.2 51.2s51.2-22.923 51.2-51.2z" />
<glyph unicode="&#xe922;" glyph-name="waterdrop" d="M783.36 638.72l-271.36 270.080-271.36-270.080c-149.76-148.48-149.76-390.4 0-540.16 74.24-74.24 172.8-111.36 271.36-111.36s197.12 37.12 271.36 111.36c149.76 149.76 149.76 391.68 0 540.16zM747.52 135.68c-62.72-62.72-147.2-97.28-235.52-97.28s-172.8 34.56-235.52 97.28c-62.72 61.44-97.28 144.64-97.28 232.96s34.56 171.52 97.28 234.24l235.52 234.24 235.52-234.24c62.72-62.72 97.28-145.92 97.28-234.24s-34.56-171.52-97.28-232.96zM512 140.8c-126.72 0-230.4 103.68-230.4 230.4 0 14.080-11.52 25.6-25.6 25.6s-25.6-11.52-25.6-25.6c0-156.16 125.44-281.6 281.6-281.6 14.080 0 25.6 11.52 25.6 25.6s-11.52 25.6-25.6 25.6z" />
<glyph unicode="&#xe923;" glyph-name="step3" d="M512-64c-282.317 0-512 229.683-512 512s229.683 512 512 512c282.317 0 512-229.683 512-512s-229.683-512-512-512zM512 925.867c-263.509 0-477.867-214.357-477.867-477.867s214.357-477.867 477.867-477.867 477.867 214.357 477.867 477.867-214.357 477.867-477.867 477.867zM619.554 575.454c0-24.883-6.963-45.227-20.924-61.065s-33.724-26.385-59.324-31.744v-2.116c31.3-3.891 54.511-13.858 69.598-29.867s22.665-36.966 22.665-62.942c0-37.171-12.902-65.741-38.673-85.743s-62.396-30.003-109.841-30.003c-20.617 0-39.526 1.57-56.661 4.676-17.169 3.106-33.826 8.567-50.005 16.384v42.121c16.896-8.363 34.884-14.711 53.999-19.081s37.205-6.519 54.272-6.519c67.345 0 101.035 26.385 101.035 79.189 0 47.309-37.171 70.929-111.445 70.929h-38.4v38.127h38.946c30.413 0 54.477 6.69 72.26 20.139s26.658 32.017 26.658 55.876c0 19.046-6.519 33.963-19.593 44.783s-30.788 16.282-53.18 16.282c-17.067 0-33.178-2.287-48.265-6.929-15.121-4.642-32.358-13.175-51.746-25.6l-22.391 29.867c16.009 12.629 34.441 22.528 55.33 29.73s42.871 10.786 66.014 10.786c37.854 0 67.277-8.67 88.235-26.010s31.437-41.028 31.437-71.27z" />
<glyph unicode="&#xe924;" glyph-name="step4" d="M512-64c-282.317 0-512 229.683-512 512s229.683 512 512 512c282.317 0 512-229.683 512-512s-229.683-512-512-512zM512 925.867c-263.509 0-477.867-214.357-477.867-477.867s214.357-477.867 477.867-477.867 477.867 214.357 477.867 477.867-214.357 477.867-477.867 477.867zM652.629 366.933h-57.856v-89.6h-42.394v89.6h-189.577v38.673l185.037 263.748h46.933v-262.144h57.856v-40.277zM552.38 407.211v129.604c0 25.429 0.887 54.135 2.662 86.118h-2.116c-8.533-17.067-16.521-31.198-23.996-42.394l-121.856-173.329h145.306z" />
<glyph unicode="&#xe925;" glyph-name="step5" d="M512-64c-282.317 0-512 229.683-512 512s229.683 512 512 512c282.317 0 512-229.683 512-512s-229.683-512-512-512zM512 925.867c-263.509 0-477.867-214.357-477.867-477.867s214.357-477.867 477.867-477.867 477.867 214.357 477.867 477.867-214.357 477.867-477.867 477.867zM499.849 515.482c41.062 0 73.353-10.172 96.905-30.549s35.328-48.23 35.328-83.593c0-40.38-12.834-71.987-38.537-94.925s-61.099-34.406-106.257-34.406c-43.93 0-77.449 7.031-100.523 21.060v42.667c12.425-7.987 27.887-14.268 46.387-18.807s36.693-6.793 54.682-6.793c31.3 0 55.569 7.373 72.909 22.118s26.010 36.113 26.010 64c0 54.409-33.348 81.613-99.977 81.613-16.896 0-39.458-2.56-67.721-7.748l-22.938 14.677 14.677 182.409h193.843v-40.789h-155.989l-9.865-117.077c20.446 4.096 40.789 6.144 61.065 6.144z" />
<glyph unicode="&#xe926;" glyph-name="step1" d="M512-64c-282.317 0-512 229.683-512 512s229.683 512 512 512c282.317 0 512-229.683 512-512s-229.683-512-512-512zM512 925.867c-263.509 0-477.867-214.357-477.867-477.867s214.357-477.867 477.867-477.867 477.867 214.357 477.867 477.867-214.357 477.867-477.867 477.867zM541.969 277.333h-43.179v277.879c0 23.108 0.717 44.954 2.116 65.604-3.721-3.721-7.919-7.646-12.527-11.742-4.642-4.096-25.771-21.436-63.454-51.985l-23.484 30.413 103.185 79.735h37.308v-389.905z" />
<glyph unicode="&#xe927;" d="M1024 448c0-282.77-229.23-512-512-512s-512 229.23-512 512c0 282.77 229.23 512 512 512s512-229.23 512-512z" />
<glyph unicode="&#xe928;" d="M701.699 610.133l-269.343-264.533-110.054 108.089c-11.585 11.378-28.962 11.378-40.546 0s-11.585-28.444 0-39.822l130.327-128c11.585-11.378 28.962-11.378 40.546 0 1.448 1.422 1.448 1.422 2.896 2.844l286.72 281.6c11.585 11.378 11.585 28.444 0 39.822s-28.962 11.378-40.546 0z" />
<glyph unicode="&#xe929;" glyph-name="step1-done" d="M541.969 277.333h-43.179v277.879c0 23.108 0.717 44.954 2.116 65.604-3.721-3.721-7.919-7.646-12.527-11.742-4.642-4.096-25.771-21.436-63.454-51.985l-23.484 30.413 103.185 79.735h37.308l0.034-389.905z" />
<glyph unicode="&#xe92a;" glyph-name="step2-done" d="M634.231 277.333h-256.239v38.127l102.673 103.185c31.3 31.642 51.883 54.238 61.85 67.721s17.442 26.658 22.391 39.458 7.475 26.556 7.475 41.335c0 20.787-6.315 37.308-18.944 49.459s-30.106 18.261-52.531 18.261c-16.179 0-31.505-2.662-46.012-7.987s-30.618-15.019-48.401-29.082l-23.484 30.14c35.908 29.867 75.025 44.783 117.35 44.783 36.625 0 65.331-9.353 86.118-28.126s31.198-43.964 31.198-75.605c0-24.713-6.929-49.152-20.787-73.318s-39.834-54.75-77.858-91.75l-85.333-83.456v-2.116h200.533v-41.028z" />
<glyph unicode="&#xe92b;" glyph-name="step3-done" d="M619.554 575.454c0-24.883-6.963-45.227-20.924-61.065s-33.724-26.385-59.324-31.744v-2.116c31.3-3.891 54.511-13.858 69.598-29.867s22.665-36.966 22.665-62.942c0-37.171-12.902-65.741-38.673-85.743s-62.396-30.003-109.841-30.003c-20.617 0-39.526 1.57-56.661 4.676-17.169 3.106-33.826 8.567-50.005 16.384v42.121c16.896-8.363 34.884-14.711 53.999-19.081s37.205-6.519 54.272-6.519c67.345 0 101.035 26.385 101.035 79.189 0 47.309-37.171 70.929-111.445 70.929h-38.4v38.127h38.946c30.413 0 54.477 6.69 72.26 20.139s26.658 32.017 26.658 55.876c0 19.046-6.519 33.963-19.593 44.783s-30.788 16.282-53.18 16.282c-17.067 0-33.178-2.287-48.265-6.929-15.121-4.642-32.358-13.175-51.746-25.6l-22.391 29.867c16.009 12.629 34.441 22.528 55.33 29.73s42.871 10.786 66.014 10.786c37.854 0 67.277-8.67 88.235-26.010s31.437-41.028 31.437-71.27z" />
<glyph unicode="&#xe92c;" glyph-name="step4-done" d="M652.629 366.933h-57.856v-89.6h-42.394v89.6h-189.577v38.673l185.037 263.748h46.933v-262.144h57.856v-40.277zM552.38 407.211v129.604c0 25.429 0.887 54.135 2.662 86.118h-2.116c-8.533-17.067-16.521-31.198-23.996-42.394l-121.856-173.329h145.306z" />
<glyph unicode="&#xe92d;" glyph-name="step5-done" d="M499.849 515.482c41.062 0 73.353-10.172 96.905-30.549s35.328-48.23 35.328-83.593c0-40.38-12.834-71.987-38.537-94.925s-61.099-34.406-106.257-34.406c-43.93 0-77.449 7.031-100.523 21.060v42.667c12.425-7.987 27.887-14.268 46.387-18.807s36.693-6.793 54.682-6.793c31.3 0 55.569 7.373 72.909 22.118s26.010 36.113 26.010 64c0 54.409-33.348 81.613-99.977 81.613-16.896 0-39.458-2.56-67.721-7.748l-22.938 14.677 14.677 182.409h193.843v-40.789h-155.989l-9.865-117.077c20.446 4.096 40.789 6.144 61.065 6.144z" />
<glyph unicode="&#xe92e;" glyph-name="check" d="M701.713 610.133l-269.346-264.533-110.080 108.1c-11.571 11.366-28.945 11.366-40.516 0s-11.571-28.433 0-39.834l130.321-128c11.571-11.366 28.945-11.366 40.55 0 1.434 1.434 1.434 1.434 2.901 2.833l286.72 281.6c11.571 11.366 11.571 28.433 0 39.834s-28.979 11.366-40.55 0z" />
<glyph unicode="&#xe92f;" glyph-name="star" horiz-adv-x="1098" d="M549.101 114.087l-331.477-174.268 63.306 369.105-268.17 261.402 370.602 53.852 165.738 335.823 165.738-335.823 370.602-53.852-268.17-261.402 63.306-369.105z" />
</font>
</defs>
</svg>
