<?xml version="1.0" encoding="UTF-8"?>
<svg width="80px" height="80px" viewBox="0 0 80 80" version="1.1" xmlns="http://www.w3.org/2000/svg" xmlns:xlink="http://www.w3.org/1999/xlink">
    <!-- Generator: Sketch 46.2 (44496) - http://www.bohemiancoding.com/sketch -->
    <title>Bathtub</title>
    <desc>Created with Sketch.</desc>
    <defs></defs>
    <g id="Icons" stroke="none" stroke-width="1" fill="none" fill-rule="evenodd">
        <g id="Bathtub" fill-rule="nonzero" fill="#868686">
            <g id="bathtub" transform="translate(4.000000, 5.000000)">
                <path d="M68.4,37.1939294 L67.2000469,37.1939294 L67.2000469,11.1581788 C67.2000469,4.95914216 62.4000938,0 56.4000469,0 C51.0886406,0 47.2685625,4.06895777 46.8412031,10.0308831 C44.05275,10.5754255 42.0000469,13.0566674 42.0000469,16.117321 C42.0000469,16.8611996 42.48,17.3570702 43.2,17.3570702 L52.8000469,17.3570702 C53.5200469,17.3570702 54,16.8611996 54,16.117321 C54,13.0905197 51.9927188,10.6299088 49.2515156,10.0490442 C49.6101094,6.10939349 51.9003281,2.47949844 56.4000469,2.47949844 C61.0800469,2.47949844 64.8,6.32282272 64.8,11.1580335 L64.8,37.1937842 L28.6839844,37.1937842 C28.1411719,34.3343555 25.7480156,32.234642 22.8000938,32.234642 C21.6001406,30.7468848 19.9200938,29.7549983 18.0001406,29.7549983 C15.7201875,29.7549983 13.6801406,31.1188241 12.7200938,33.1024519 C11.7600469,32.6065813 10.6800469,32.234642 9.60004688,32.234642 C6.652125,32.234642 4.25896875,34.3343555 3.71615625,37.1937842 L3.6,37.1937842 C1.55995313,37.1937842 0,38.8054727 0,40.9131771 C0,43.0208815 1.55995313,44.63257 3.6,44.63257 L5.04210938,44.63257 L8.28,57.8984533 C9.24004688,61.7417776 12.6,64.4694293 16.4400469,64.4694293 L17.4000938,64.4694293 L15.8401406,67.6929516 C15.4801406,68.3128988 15.7201875,69.0567774 16.3200938,69.3046401 C16.4400469,69.4285714 16.6800938,69.4285714 16.8000469,69.4285714 C17.28,69.4285714 17.64,69.1805635 17.8800469,68.8086242 L19.98,64.4694293 L53.28,64.4694293 L55.3200469,68.6846928 C55.5600938,69.1805635 55.9200938,69.4285714 56.4000469,69.4285714 C56.6400938,69.4285714 56.7600469,69.4285714 56.88,69.1805635 C57.3599531,68.9325555 57.6,68.1886769 57.3599531,67.568875 L55.8568125,64.462746 C59.5719844,64.3264651 62.7848438,61.6455964 63.72,58.0223846 L66.988125,44.63257 L68.4,44.63257 C70.4400469,44.63257 72,43.0208815 72,40.9131771 C72,38.805618 70.4400469,37.1939294 68.4,37.1939294 Z M51.48,14.8775718 L44.64,14.8775718 C45.1199531,13.3898146 46.5599531,12.3979281 48.1200469,12.3979281 C49.6801406,12.3979281 51.0000469,13.3898146 51.48,14.8775718 Z M9.60004688,34.7142857 C10.6800469,34.7142857 11.6400938,35.2101563 12.4800469,36.0781116 C12.7200938,36.4500509 13.2000469,36.5739822 13.68,36.4500509 C14.1599531,36.3261195 14.4,35.9541802 14.5199531,35.4581643 C14.8799531,33.5984678 16.3199531,32.234642 18.1199531,32.234642 C19.44,32.234642 20.6399531,32.8545892 21.24,34.0943385 C21.4800469,34.5902091 22.0799531,34.838217 22.5600469,34.7142857 L22.9200469,34.7142857 C24.48,34.7142857 25.8000469,35.7061723 26.28,37.1939294 L6.23995313,37.1939294 C6.72004688,35.7061723 8.03995313,34.7142857 9.60004688,34.7142857 Z M61.56,57.2786513 C60.84,60.0061577 58.4399531,61.9899308 55.6800469,61.9899308 L16.56,61.9899308 C13.7999531,61.9899308 11.4000469,60.006303 10.6800469,57.2786513 L7.56,44.6327153 L64.44,44.6327153 L61.56,57.2786513 Z M68.4,42.1530716 L65.9999531,42.1530716 L6.00004688,42.1530716 L3.6,42.1530716 C2.88,42.1530716 2.40004688,41.657201 2.40004688,40.9133224 C2.40004688,40.1694438 2.88,39.6735732 3.6,39.6735732 L4.79995313,39.6735732 L27.5999063,39.6735732 L68.4,39.6735732 C69.12,39.6735732 69.5999531,40.1694438 69.5999531,40.9133224 C69.5999531,41.657201 69.12,42.1530716 68.4,42.1530716 Z" id="Shape"></path>
                <path d="M45,23.1428571 C45.7714587,23.1428571 46.2857143,22.7314623 46.2857143,22.1143098 L46.2857143,21.5999759 C46.2857143,20.9828234 45.7714587,20.5714286 45,20.5714286 C44.2285413,20.5714286 43.7142857,20.9828234 43.7142857,21.5999759 L43.7142857,22.1143098 C43.7142857,22.7314623 44.2285413,23.1428571 45,23.1428571 Z" id="Shape"></path>
                <path d="M43.7142857,27.4562431 C43.7142857,27.9539453 44.2285413,28.2857143 45,28.2857143 C45.7714587,28.2857143 46.2857143,27.8709301 46.2857143,27.4562431 L46.2857143,26.5437569 C46.2857143,26.0460547 45.7714587,25.7142857 45,25.7142857 C44.2285413,25.7142857 43.7142857,26.0460547 43.7142857,26.5437569 L43.7142857,27.4562431 Z" id="Shape"></path>
                <path d="M43.7142857,32.4000241 C43.7142857,33.0171766 44.2285413,33.4285714 45,33.4285714 C45.7714587,33.4285714 46.2857143,33.0171766 46.2857143,32.4000241 L46.2857143,31.8856902 C46.2857143,31.2685377 45.7714587,30.8571429 45,30.8571429 C44.2285413,30.8571429 43.7142857,31.2685377 43.7142857,31.8856902 L43.7142857,32.4000241 Z" id="Shape"></path>
                <path d="M50.1428572,23.1428571 C50.9143159,23.1428571 51.4285714,22.7314623 51.4285714,22.1143098 L51.4285714,21.5999759 C51.4285714,20.9828234 50.9143159,20.5714286 50.1428572,20.5714286 C49.3713985,20.5714286 48.8571429,20.9828234 48.8571429,21.5999759 L48.8571429,22.1143098 C48.8569922,22.7314623 49.3713985,23.1428571 50.1428572,23.1428571 Z" id="Shape"></path>
                <path d="M48.8571429,27.4562431 C48.8571429,27.9539453 49.3713683,28.2857143 50.1427818,28.2857143 C50.9141953,28.2857143 51.4285714,27.8710273 51.4285714,27.4562431 L51.4285714,26.5437569 C51.4285714,26.0460547 50.914346,25.7142857 50.1429325,25.7142857 C49.371519,25.7142857 48.8572935,26.0460547 48.8572935,26.5437569 L48.8572935,27.4562431 L48.8571429,27.4562431 Z" id="Shape"></path>
                <path d="M48.8571429,32.4000241 C48.8571429,33.0171766 49.3713984,33.4285714 50.1428571,33.4285714 C50.9143158,33.4285714 51.4285714,33.0171766 51.4285714,32.4000241 L51.4285714,31.8856902 C51.4285714,31.2685377 50.9143158,30.8571429 50.1428571,30.8571429 C49.3713984,30.8571429 48.8571429,31.2685377 48.8571429,31.8856902 L48.8571429,32.4000241 Z" id="Shape"></path>
            </g>
        </g>
    </g>
</svg>