<?xml version="1.0" encoding="utf-8"?>
<!-- Generator: Adobe Illustrator 19.1.0, SVG Export Plug-In . SVG Version: 6.00 Build 0)  -->
<svg version="1.1" id="Layer_1" xmlns="http://www.w3.org/2000/svg" xmlns:xlink="http://www.w3.org/1999/xlink" x="0px" y="0px"
	 viewBox="25 -25 80 80" style="enable-background:new 25 -25 80 80;" xml:space="preserve">
<style type="text/css">
	.st0{fill:#868686;}
</style>
<g id="FacebookIcon" transform="translate(23.000000, 9.000000)">
	<path id="Page-1_1_" class="st0" d="M49-14c-0.8,0-5,0-5,0c-5,0-8,3.1-8,9v4h-5c-0.5,0-1,0.5-1,1.1v6.1c0,0.4,0.3,0.8,0.8,0.8L36,7
		v15c0,0.6,0.4,1,1,1h6c0.5,0,1-0.5,1-1V7h5c0.5,0,1-0.4,1-1V0.1C50-0.5,49.5-1,49-1h-5v-4c0-1-0.1-2,1-2h4c0.6,0,1-0.4,1-1v-5
		C50-13.6,49.5-14,49-14z"/>
</g>
</svg>
