<?xml version="1.0" encoding="utf-8"?>
<!-- Generator: Adobe Illustrator 17.0.0, SVG Export Plug-In . SVG Version: 6.00 Build 0)  -->
<!DOCTYPE svg PUBLIC "-//W3C//DTD SVG 1.1//EN" "http://www.w3.org/Graphics/SVG/1.1/DTD/svg11.dtd">
<svg version="1.1" id="Layer_1" xmlns="http://www.w3.org/2000/svg" xmlns:xlink="http://www.w3.org/1999/xlink" x="0px" y="0px"
	 width="595.28px" height="841.89px" viewBox="0 0 595.28 841.89" enable-background="new 0 0 595.28 841.89" xml:space="preserve">
<g id="Symbols">
	<g id="Login-Footer">
		<g id="Follow-Us-_-Page-1">
			<g id="Instagram">
				<g id="instagram12">
					<g id="Capa_1">
						<path id="Shape" d="M131.759,197.734h331.763c30.873-0.788,56.542,23.6,57.33,54.473c0.025,0.952,0.025,1.903,0,2.857v331.763
							c0.788,30.873-23.6,56.542-54.473,57.33c-0.952,0.025-1.905,0.025-2.857,0H131.759c-30.873,0.788-56.542-23.6-57.33-54.475
							c-0.025-0.952-0.025-1.903,0-2.857V255.064c-0.788-30.873,23.6-56.542,54.473-57.33
							C129.855,197.71,130.807,197.71,131.759,197.734z M399.611,247.31c-10.957,0.192-19.738,9.13-19.737,20.088v47.815
							c0.065,11.068,9.022,20.025,20.088,20.088h50.398c10.977-0.192,19.792-9.112,19.853-20.088v-47.815
							c-0.062-10.978-8.878-19.898-19.853-20.088H399.611z M470.1,386.523h-39.003c3.813,12.408,5.753,25.317,5.757,38.298
							C433.7,501.448,369.025,561.008,292.4,557.855c-72.205-2.972-130.061-60.828-133.033-133.033
							c0.002-12.982,1.942-25.89,5.757-38.298h-41.118v188.555c0.063,9.77,7.968,17.675,17.74,17.74h310.968
							c9.797,0,17.74-7.942,17.74-17.74V386.523H470.1z M297.64,333.07c-47.99,1.492-85.683,41.605-84.192,89.595
							c1.492,47.99,41.605,85.683,89.595,84.192c46.967-1.46,84.273-39.978,84.233-86.968
							C386.44,371.187,346.343,332.35,297.64,333.07z"/>
					</g>
				</g>
			</g>
		</g>
	</g>
</g>
</svg>
