<?xml version="1.0" encoding="UTF-8"?>
<svg width="80px" height="80px" viewBox="0 0 80 80" version="1.1" xmlns="http://www.w3.org/2000/svg" xmlns:xlink="http://www.w3.org/1999/xlink">
    <!-- Generator: Sketch 46.2 (44496) - http://www.bohemiancoding.com/sketch -->
    <title>left-arrow</title>
    <desc>Created with Sketch.</desc>
    <defs></defs>
    <g id="Icons" stroke="none" stroke-width="1" fill="none" fill-rule="evenodd">
        <g id="left-arrow" fill-rule="nonzero" fill="#868686">
            <g transform="translate(4.000000, 31.000000)" id="Shape">
                <path d="M71.4,7.6 C71,7.2 70.5,7 70,7 L6.8,7 L10.3,3.5 L10.4,3.4 C11.2,2.6 11.2,1.4 10.4,0.6 C9.6,-0.2 8.4,-0.2 7.6,0.6 L7.6,0.6 L0.6,7.6 L0.6,7.6 L0.6,7.6 C-0.2,8.4 -0.2,9.6 0.6,10.4 L7.6,17.4 C8.4,18.2 9.6,18.2 10.4,17.4 C11.2,16.6 11.2,15.4 10.4,14.6 L6.8,11 L70,11 C70.5,11 71,10.8 71.4,10.4 C72.2,9.6 72.2,8.4 71.4,7.6 Z"></path>
            </g>
        </g>
    </g>
</svg>