<?xml version="1.0" encoding="UTF-8"?>
<svg width="80px" height="80px" viewBox="0 0 80 80" version="1.1" xmlns="http://www.w3.org/2000/svg" xmlns:xlink="http://www.w3.org/1999/xlink">
    <!-- Generator: Sketch 46.2 (44496) - http://www.bohemiancoding.com/sketch -->
    <title>pin</title>
    <desc>Created with Sketch.</desc>
    <defs></defs>
    <g id="Icons" stroke="none" stroke-width="1" fill="none" fill-rule="evenodd">
        <g id="pin" fill-rule="nonzero" fill="#868686">
            <g transform="translate(10.000000, 4.000000)" id="Shape">
                <path d="M51.2,8.7 C45.4,2.9 37.7,0 30,0 C22.3,0 14.6,2.9 8.8,8.7 C-2.9,20.3 -2.9,39.2 8.8,50.9 L30,72 L51.2,50.9 C62.9,39.3 62.9,20.4 51.2,8.7 Z M48.4,48.1 L30,66.4 L11.6,48.1 C6.7,43.2 4,36.7 4,29.8 C4,22.9 6.7,16.4 11.6,11.5 C16.5,6.7 23.1,4 30,4 C36.9,4 43.5,6.7 48.4,11.6 C53.3,16.4 56,22.9 56,29.8 C56,36.7 53.3,43.2 48.4,48.1 Z"></path>
                <path d="M30,16 C22.3,16 16,22.3 16,30 C16,37.7 22.3,44 30,44 C37.7,44 44,37.7 44,30 C44,22.3 37.7,16 30,16 Z M30,40 C24.5,40 20,35.5 20,30 C20,24.5 24.5,20 30,20 C35.5,20 40,24.5 40,30 C40,35.5 35.5,40 30,40 Z"></path>
            </g>
        </g>
    </g>
</svg>