<?xml version="1.0" encoding="UTF-8"?>
<svg width="80px" height="80px" viewBox="0 0 80 80" version="1.1" xmlns="http://www.w3.org/2000/svg" xmlns:xlink="http://www.w3.org/1999/xlink">
    <!-- Generator: Sketch 46.2 (44496) - http://www.bohemiancoding.com/sketch -->
    <title>right-arrow</title>
    <desc>Created with Sketch.</desc>
    <defs></defs>
    <g id="Icons" stroke="none" stroke-width="1" fill="none" fill-rule="evenodd">
        <g id="right-arrow" fill-rule="nonzero" fill="#868686">
            <g transform="translate(4.000000, 31.000000)" id="Shape">
                <path d="M71.4,7.6 L64.4,0.6 C63.6,-0.2 62.4,-0.2 61.6,0.6 C60.8,1.4 60.8,2.6 61.6,3.4 L61.7,3.5 L65.2,7 L2,7 C1.5,7 1,7.2 0.6,7.6 C-0.2,8.4 -0.2,9.6 0.6,10.4 C1,10.8 1.5,11 2,11 L65.2,11 L61.6,14.6 C60.8,15.4 60.8,16.6 61.6,17.4 C62.4,18.2 63.6,18.2 64.4,17.4 L71.4,10.4 C72.2,9.6 72.2,8.4 71.4,7.6 Z"></path>
            </g>
        </g>
    </g>
</svg>