<?xml version="1.0" encoding="UTF-8"?>
<svg width="80px" height="80px" viewBox="0 0 80 80" version="1.1" xmlns="http://www.w3.org/2000/svg" xmlns:xlink="http://www.w3.org/1999/xlink">
    <!-- Generator: Sketch 46.2 (44496) - http://www.bohemiancoding.com/sketch -->
    <title>settings</title>
    <desc>Created with Sketch.</desc>
    <defs></defs>
    <g id="Icons" stroke="none" stroke-width="1" fill="none" fill-rule="evenodd">
        <g id="settings" fill-rule="nonzero" fill="#868686">
            <g transform="translate(4.000000, 4.000000)" id="Shape">
                <path d="M68,0 L4,0 C1.8,0 0,1.8 0,4 L0,68 C0,70.2 1.8,72 4,72 L68,72 C70.2,72 72,70.2 72,68 L72,4 C72,1.8 70.2,0 68,0 Z M68,68 L4,68 L4,4 L68,4 L68,68 Z"></path>
                <path d="M14,20 L16,20 C16.9,22.9 19.8,25 23,25 C26.2,25 29.1,22.9 30,20 L58,20 C59.1,20 60,19.1 60,18 C60,16.9 59.1,16 58,16 L30,16 C29.1,13.1 26.2,11 23,11 C19.8,11 16.9,13.1 16,16 L14,16 C12.9,16 12,16.9 12,18 C12,19.1 12.9,20 14,20 Z M23,15 C24.7,15 26,16.3 26,18 C26,19.7 24.7,21 23,21 C21.3,21 20,19.7 20,18 C20,16.3 21.3,15 23,15 Z"></path>
                <path d="M14,38 L42,38 C42.9,40.9 45.8,43 49,43 C52.2,43 55.1,40.9 56,38 L58,38 C59.1,38 60,37.1 60,36 C60,34.9 59.1,34 58,34 L56,34 C55.1,31.1 52.2,29 49,29 C45.8,29 42.9,31.1 42,34 L14,34 C12.9,34 12,34.9 12,36 C12,37.1 12.9,38 14,38 Z M49,33 C50.7,33 52,34.3 52,36 C52,37.7 50.7,39 49,39 C47.3,39 46,37.7 46,36 C46,34.3 47.3,33 49,33 Z"></path>
                <path d="M14,56 L23,56 C23.9,58.9 26.8,61 30,61 C33.2,61 36.1,58.9 37,56 L58,56 C59.1,56 60,55.1 60,54 C60,52.9 59.1,52 58,52 L37,52 C36.1,49.1 33.2,47 30,47 C26.8,47 23.9,49.1 23,52 L14,52 C12.9,52 12,52.9 12,54 C12,55.1 12.9,56 14,56 Z M30,51 C31.7,51 33,52.3 33,54 C33,55.7 31.7,57 30,57 C28.3,57 27,55.7 27,54 C27,52.3 28.3,51 30,51 Z"></path>
            </g>
        </g>
    </g>
</svg>