<?xml version="1.0" encoding="utf-8"?>
<!-- Generator: Adobe Illustrator 17.0.0, SVG Export Plug-In . SVG Version: 6.00 Build 0)  -->
<!DOCTYPE svg PUBLIC "-//W3C//DTD SVG 1.1//EN" "http://www.w3.org/Graphics/SVG/1.1/DTD/svg11.dtd">
<svg version="1.1" id="Camada_1" xmlns="http://www.w3.org/2000/svg" xmlns:xlink="http://www.w3.org/1999/xlink" x="0px" y="0px"
	 width="30px" height="30px" viewBox="0 0 30 30" enable-background="new 0 0 30 30" xml:space="preserve">
<title>Tracker/Active Copy</title>
<desc>Created with Sketch.</desc>
<g id="Symbols">
	<g id="Welcome_x2F_1" transform="translate(-973.000000, -220.000000)">
		<g id="_x32_-copy-6" transform="translate(973.000000, 220.000000)">
			<g id="Tracker_x2F_Active-Copy">
				<g id="Oval">
				</g>
				<g enable-background="new    ">
					<path fill="#B19378" d="M14.644,13.023c1.203,0,2.149,0.298,2.839,0.895s1.035,1.413,1.035,2.449
						c0,1.183-0.376,2.109-1.129,2.781s-1.79,1.008-3.113,1.008c-1.287,0-2.269-0.206-2.945-0.617v-1.25
						c0.364,0.234,0.817,0.418,1.359,0.551c0.542,0.133,1.075,0.199,1.602,0.199c0.917,0,1.628-0.216,2.136-0.648
						s0.762-1.058,0.762-1.875c0-1.594-0.977-2.391-2.929-2.391c-0.495,0-1.156,0.075-1.984,0.227l-0.672-0.43l0.43-5.344h5.679
						v1.195h-4.57l-0.289,3.43C13.454,13.083,14.05,13.023,14.644,13.023z"/>
				</g>
			</g>
		</g>
	</g>
</g>
</svg>
