<?xml version="1.0" encoding="utf-8"?>
<!-- Generator: Adobe Illustrator 17.0.0, SVG Export Plug-In . SVG Version: 6.00 Build 0)  -->
<!DOCTYPE svg PUBLIC "-//W3C//DTD SVG 1.1//EN" "http://www.w3.org/Graphics/SVG/1.1/DTD/svg11.dtd">
<svg version="1.1" id="Camada_1" xmlns="http://www.w3.org/2000/svg" xmlns:xlink="http://www.w3.org/1999/xlink" x="0px" y="0px"
	 width="30px" height="30px" viewBox="0 0 30 30" enable-background="new 0 0 30 30" xml:space="preserve">
<title>Tracker/Active</title>
<desc>Created with Sketch.</desc>
<g id="Symbols">
	<g id="Welcome_x2F_1" transform="translate(-173.000000, -220.000000)">
		<g id="_x31_" transform="translate(173.000000, 220.000000)">
			<g id="Tracker_x2F_Active">
				<g id="Oval">
					<path fill="#0D5389" d="M15,30C6.729,30,0,23.271,0,15C0,6.729,6.729,0,15,0c8.271,0,15,6.729,15,15C30,23.271,23.271,30,15,30
						z M15,1C7.28,1,1,7.28,1,15s6.28,14,14,14s14-6.28,14-14S22.72,1,15,1z"/>
				</g>
				<g enable-background="new    ">
					<path fill="#0D5389" d="M15.878,20h-1.265v-8.141c0-0.677,0.021-1.317,0.062-1.922c-0.109,0.109-0.232,0.224-0.367,0.344
						c-0.136,0.12-0.755,0.628-1.859,1.523l-0.688-0.891l3.023-2.336h1.093V20z"/>
				</g>
			</g>
		</g>
	</g>
</g>
</svg>
