<?xml version="1.0" encoding="utf-8"?>
<!-- Generator: Adobe Illustrator 17.0.0, SVG Export Plug-In . SVG Version: 6.00 Build 0)  -->
<!DOCTYPE svg PUBLIC "-//W3C//DTD SVG 1.1//EN" "http://www.w3.org/Graphics/SVG/1.1/DTD/svg11.dtd">
<svg version="1.1" id="Camada_1" xmlns="http://www.w3.org/2000/svg" xmlns:xlink="http://www.w3.org/1999/xlink" x="0px" y="0px"
	 width="30px" height="30px" viewBox="0 0 30 30" enable-background="new 0 0 30 30" xml:space="preserve">
<title>Tracker/Active Copy</title>
<desc>Created with Sketch.</desc>
<g id="Symbols">
	<g id="Welcome_x2F_1" transform="translate(-401.000000, -220.000000)">
		<g id="_x32__1_" transform="translate(401.000000, 220.000000)">
			<g id="Tracker_x2F_Active-Copy">
				<g enable-background="new    ">
					<path fill="#B19378" d="M18.581,20h-7.507v-1.117l3.008-3.023c0.917-0.927,1.52-1.589,1.812-1.984
						c0.292-0.395,0.511-0.781,0.656-1.156s0.219-0.778,0.219-1.211c0-0.609-0.185-1.093-0.555-1.449
						c-0.37-0.356-0.882-0.535-1.539-0.535c-0.474,0-0.923,0.078-1.348,0.234c-0.425,0.156-0.897,0.44-1.418,0.852l-0.688-0.883
						c1.052-0.875,2.198-1.312,3.438-1.312c1.073,0,1.914,0.274,2.523,0.824s0.914,1.288,0.914,2.215
						c0,0.724-0.203,1.44-0.609,2.148s-1.167,1.604-2.281,2.688l-2.5,2.445v0.062h5.875V20z"/>
				</g>
			</g>
		</g>
	</g>
</g>
</svg>
