<?xml version="1.0" encoding="UTF-8"?>
<svg width="80px" height="80px" viewBox="0 0 80 80" version="1.1" xmlns="http://www.w3.org/2000/svg" xmlns:xlink="http://www.w3.org/1999/xlink">
    <!-- Generator: Sketch 46.2 (44496) - http://www.bohemiancoding.com/sketch -->
    <title>warning</title>
    <desc>Created with Sketch.</desc>
    <defs></defs>
    <g id="Icons" stroke="none" stroke-width="1" fill="none" fill-rule="evenodd">
        <g id="warning" fill-rule="nonzero" fill="#868686">
            <g transform="translate(4.000000, 4.000000)">
                <path d="M36,0 C16.1,0 0,16.1 0,36 C0,55.9 16.1,72 36,72 C55.9,72 72,55.9 72,36 C72,16.1 55.9,0 36,0 Z M36,68 C18.3,68 4,53.7 4,36 C4,18.3 18.3,4 36,4 C53.7,4 68,18.3 68,36 C68,53.7 53.7,68 36,68 Z" id="Shape"></path>
                <path d="M36,16 C33.8,16 32,17.8 32,20 L34,42 C34,43.1 34.9,44 36,44 C37.1,44 38,43.1 38,42 L40,20 C40,17.8 38.2,16 36,16 Z" id="Shape"></path>
                <circle id="Oval" cx="36" cy="52" r="4"></circle>
            </g>
        </g>
    </g>
</svg>