<?xml version="1.0" encoding="UTF-8"?>
<svg width="80px" height="80px" viewBox="0 0 80 80" version="1.1" xmlns="http://www.w3.org/2000/svg" xmlns:xlink="http://www.w3.org/1999/xlink">
    <!-- Generator: Sketch 46.2 (44496) - http://www.bohemiancoding.com/sketch -->
    <title>anchor</title>
    <desc>Created with Sketch.</desc>
    <defs></defs>
    <g id="Icons" stroke="none" stroke-width="1" fill="none" fill-rule="evenodd">
        <g id="anchor" fill-rule="nonzero" fill="#868686">
            <g transform="translate(8.000000, 4.000000)" id="Shape">
                <path d="M51,41 C49.9,41 49,41.9 49,43 C49,44.1 49.9,45 51,45 L56,45 C54.6,57.3 44.4,67.1 32,68 L32,32 L39,32 C40.1,32 41,31.1 41,30 C41,28.9 40.1,28 39,28 L32,28 L32,20 C36.6,19.1 40,14.8 40,10 C40,4.5 35.5,0 30,0 C24.5,0 20,4.5 20,10 C20,14.8 23.4,19.1 28,20 L28,28 L21,28 C19.9,28 19,28.9 19,30 C19,31.1 19.9,32 21,32 L28,32 L28,68 C15.6,67.1 5.4,57.3 4,45 L9,45 C10.1,45 11,44.1 11,43 C11,41.9 10.1,41 9,41 L0,41 L0,45 C1.5,60.2 14.4,72 30,72 C45.6,72 58.5,60.2 60,45 L60,41 L51,41 Z M24,10 C24,6.7 26.7,4 30,4 C33.3,4 36,6.7 36,10 C36,13.3 33.3,16 30,16 C26.7,16 24,13.3 24,10 Z"></path>
            </g>
        </g>
    </g>
</svg>