<?xml version="1.0" encoding="UTF-8"?>
<svg width="80px" height="80px" viewBox="0 0 80 80" version="1.1" xmlns="http://www.w3.org/2000/svg" xmlns:xlink="http://www.w3.org/1999/xlink">
    <!-- Generator: Sketch 46.2 (44496) - http://www.bohemiancoding.com/sketch -->
    <title>Bed</title>
    <desc>Created with Sketch.</desc>
    <defs></defs>
    <g id="Icons" stroke="none" stroke-width="1" fill="none" fill-rule="evenodd">
        <g id="Bed" fill-rule="nonzero" fill="#868686">
            <g id="bed" transform="translate(4.000000, 14.000000)">
                <path d="M69.2326481,22.5822909 L69.2326481,4.49490468 C69.2326481,2.01644112 67.2267482,0 64.7612411,0 L8.23875891,0 C5.77325182,0 3.7673519,2.01644112 3.7673519,4.49490468 L3.7673519,22.5824796 C1.63735054,22.9082357 0,24.7614213 0,26.992265 L0,38.1876276 C0,38.9693666 0.630457874,39.6031375 1.4081102,39.6031375 L2.9166656,39.6031375 L2.9166656,46.58632 C2.9166656,47.368059 3.54712347,48.00183 4.3247758,48.00183 L6.86669633,48.00183 L6.86669633,50.7273472 C6.86669633,51.5090862 7.4971542,52.1428571 8.27480653,52.1428571 C9.05245886,52.1428571 9.68291673,51.5090862 9.68291673,50.7273472 L9.68291673,48.00183 L63.317271,48.00183 L63.317271,50.7273472 C63.317271,51.5090862 63.9475411,52.1428571 64.7253812,52.1428571 C65.5032213,52.1428571 66.1334914,51.5090862 66.1334914,50.7273472 L66.1334914,48.00183 L68.675412,48.00183 C69.453252,48.00183 70.0835222,47.368059 70.0835222,46.58632 L70.0835222,39.6031375 L71.5918898,39.6031375 C72.3697299,39.6031375 73,38.9693666 73,38.1876276 L73,26.992265 C73,24.7614213 71.3626495,22.9080469 69.2326481,22.5822909 Z M6.58338456,4.49490468 C6.58338456,3.5774655 7.325928,2.83101991 8.23857116,2.83101991 L64.7610533,2.83101991 C65.6736965,2.83101991 66.4162399,3.5774655 66.4162399,4.49490468 L66.4162399,22.5315213 L61.4718957,22.5315213 C62.4556953,21.4668691 63.4563923,20.347295 64.4927614,19.1493962 C64.9536828,18.6165982 64.9534951,17.8239126 64.4925737,17.2913034 C60.418817,12.5846384 57.0079986,9.15589586 52.3272525,5.06205234 C51.7974276,4.59852001 51.0086981,4.59852001 50.4786855,5.06205234 C45.7977517,9.1560846 42.387121,12.5848272 38.3135521,17.2913034 C37.8526307,17.8239126 37.8524429,18.6165982 38.3133643,19.1493962 C39.3499212,20.3474838 40.3504304,21.4670578 41.3342301,22.5315213 L31.6646434,22.5315213 C32.6484431,21.4668691 33.6493278,20.347295 34.6856969,19.1493962 C35.1466183,18.6165982 35.1466183,17.8239126 34.6855092,17.2913034 C30.6123158,12.5853934 27.2014974,9.1566508 22.5201881,5.06205234 C21.9903631,4.59852001 21.2016337,4.59852001 20.671621,5.06205234 C15.9903117,9.1566508 12.5794933,12.5853934 8.50629985,17.2913034 C8.04519069,17.8239126 8.04519069,18.6165982 8.5061121,19.1493962 C9.54266895,20.347295 10.5433659,21.4668691 11.5271656,22.5315213 L6.58338456,22.5315213 L6.58338456,4.49490468 Z M45.2196755,22.5315213 C43.9240263,21.1945249 42.6152349,19.7739191 41.2488047,18.2204442 C44.6149391,14.3915841 47.5952513,11.3956101 51.4031567,8.01254129 C55.2110622,11.3954213 58.1913744,14.3915841 61.5576965,18.2204442 C60.1914541,19.7739191 58.8824749,21.1945249 57.5868257,22.5315213 L45.2196755,22.5315213 Z M15.4127988,22.5315213 C14.1171496,21.1943362 12.8081704,19.7739191 11.4417402,18.2204442 C14.8073114,14.392339 17.7881868,11.3957988 21.59628,8.01254129 C25.4043732,11.3957988 28.3852487,14.392339 31.7508198,18.2204442 C30.3845774,19.7739191 29.0755982,21.1943362 27.7797613,22.5315213 L15.4127988,22.5315213 Z M67.2673018,45.17081 L5.732886,45.17081 L5.732886,39.6031375 L67.2673018,39.6031375 L67.2673018,45.17081 Z M70.1837796,36.7721176 L2.8162204,36.7721176 L2.8162204,26.992265 C2.8162204,26.0936993 3.54355626,25.3625412 4.43761236,25.3625412 L68.5623876,25.3625412 C69.4564437,25.3625412 70.1837796,26.0936993 70.1837796,26.992265 L70.1837796,36.7721176 L70.1837796,36.7721176 Z" id="Shape"></path>
            </g>
        </g>
    </g>
</svg>