<?xml version="1.0" encoding="UTF-8"?>
<svg width="80px" height="80px" viewBox="0 0 80 80" version="1.1" xmlns="http://www.w3.org/2000/svg" xmlns:xlink="http://www.w3.org/1999/xlink">
    <!-- Generator: Sketch 46.2 (44496) - http://www.bohemiancoding.com/sketch -->
    <title>check</title>
    <desc>Created with Sketch.</desc>
    <defs></defs>
    <g id="Icons" stroke="none" stroke-width="1" fill="none" fill-rule="evenodd">
        <g id="check" fill-rule="nonzero" fill="#868686">
            <g transform="translate(4.000000, 4.000000)" id="Shape">
                <path d="M49.6,24.6 L31,43.2 L23.4,35.6 C22.6,34.8 21.4,34.8 20.6,35.6 C19.8,36.4 19.8,37.6 20.6,38.4 L29.6,47.4 C30.4,48.2 31.6,48.2 32.4,47.4 C32.5,47.3 32.5,47.3 32.6,47.2 L52.4,27.4 C53.2,26.6 53.2,25.4 52.4,24.6 C51.6,23.8 50.4,23.8 49.6,24.6 Z"></path>
                <path d="M36,0 C16.1,0 0,16.1 0,36 C0,55.9 16.1,72 36,72 C55.9,72 72,55.9 72,36 C72,16.1 55.9,0 36,0 Z M36,68 C18.3,68 4,53.7 4,36 C4,18.3 18.3,4 36,4 C53.7,4 68,18.3 68,36 C68,53.7 53.7,68 36,68 Z"></path>
            </g>
        </g>
    </g>
</svg>