<?xml version="1.0" encoding="UTF-8"?>
<svg width="80px" height="80px" viewBox="0 0 80 80" version="1.1" xmlns="http://www.w3.org/2000/svg" xmlns:xlink="http://www.w3.org/1999/xlink">
    <!-- Generator: Sketch 46.2 (44496) - http://www.bohemiancoding.com/sketch -->
    <title>compass</title>
    <desc>Created with Sketch.</desc>
    <defs></defs>
    <g id="Icons" stroke="none" stroke-width="1" fill="none" fill-rule="evenodd">
        <g id="compass" fill-rule="nonzero" fill="#868686">
            <g transform="translate(4.000000, 4.000000)">
                <path d="M36,0 C16.1,0 0,16.1 0,36 C0,55.9 16.1,72 36,72 C55.9,72 72,55.9 72,36 C72,16.1 55.9,0 36,0 Z M38,67.9 L38,64 C38,62.9 37.1,62 36,62 C34.9,62 34,62.9 34,64 L34,67.9 C17.9,66.9 5.1,54 4.1,38 L8,38 C9.1,38 10,37.1 10,36 C10,34.9 9.1,34 8,34 L4.1,34 C5.1,17.9 18,5.1 34,4.1 L34,8 C34,9.1 34.9,10 36,10 C37.1,10 38,9.1 38,8 L38,4.1 C54.1,5.1 66.9,18 67.9,34 L64,34 C62.9,34 62,34.9 62,36 C62,37.1 62.9,38 64,38 L67.9,38 C66.9,54.1 54.1,66.9 38,67.9 Z" id="Shape"></path>
                <path d="M51.2,18.2 L29.2,28.2 C28.8,28.4 28.4,28.8 28.2,29.2 L18.2,51.2 C17.9,52 18,52.9 18.6,53.4 C19,53.8 19.5,54 20,54 C20.3,54 20.6,53.9 20.8,53.8 L42.8,43.8 C43.2,43.6 43.6,43.2 43.8,42.8 L53.8,20.8 C54.1,20 54,19.1 53.4,18.6 C52.8,18 51.9,17.8 51.2,18.2 Z M40.5,40.5 L24,48 L31.5,31.5 L48,24 L40.5,40.5 Z" id="Shape"></path>
                <circle id="Oval" cx="36" cy="36" r="3"></circle>
            </g>
        </g>
    </g>
</svg>