<?xml version="1.0" encoding="UTF-8"?>
<svg width="80px" height="80px" viewBox="0 0 80 80" version="1.1" xmlns="http://www.w3.org/2000/svg" xmlns:xlink="http://www.w3.org/1999/xlink">
    <!-- Generator: Sketch 46.2 (44496) - http://www.bohemiancoding.com/sketch -->
    <title>heart</title>
    <desc>Created with Sketch.</desc>
    <defs></defs>
    <g id="Icons" stroke="none" stroke-width="1" fill="none" fill-rule="evenodd">
        <g id="heart" fill-rule="nonzero" fill="#868686">
            <g transform="translate(3.000000, 4.000000)" id="Shape">
                <path d="M52,4 C61.4,4 69,11.6 69,21 L69,21 C69,21.2 69.8,43.1 37,67 C27.3,59.9 15.3,49.2 8.9,35.6 C4.8,27 5,21 5,21 L5,21 C5,11.6 12.6,4 22,4 C26.6,4 30.8,5.7 34,9 L37,12 L40,9 C43.2,5.7 47.4,4 52,4 L52,4 Z M52,0 C46.1,0 40.8,2.1 37,6 C33.2,2.1 27.9,0 22,0 C10.4,0 1,9.4 1,21 C1,21 -0.4,46 37,72 C74.4,46 73,21 73,21 C73,9.4 63.6,0 52,0 L52,0 Z"></path>
            </g>
        </g>
    </g>
</svg>