<?xml version="1.0" encoding="UTF-8"?>
<svg width="80px" height="80px" viewBox="0 0 80 80" version="1.1" xmlns="http://www.w3.org/2000/svg" xmlns:xlink="http://www.w3.org/1999/xlink">
    <!-- Generator: Sketch 46.2 (44496) - http://www.bohemiancoding.com/sketch -->
    <title>House</title>
    <desc>Created with Sketch.</desc>
    <defs></defs>
    <g id="Icons" stroke="none" stroke-width="1" fill="none" fill-rule="evenodd">
        <g id="House" transform="translate(0.000000, -2.000000)" fill-rule="nonzero" fill="#868686">
            <g transform="translate(0.000000, 2.000000)" id="house-outline">
                <g transform="translate(2.000000, 3.000000)">
                    <path d="M62.8971221,26 C61.6671954,26 60.7146826,26.9401044 60.7146826,28.1654421 L60.7146826,66.7444419 L45.2385163,66.7444419 L45.2385163,54.6661305 C45.2385163,53.5330489 44.2861273,52.5425226 43.1347723,52.5425226 L31.9447894,52.5425226 C30.7138727,52.5425226 29.7225072,53.5329262 29.7225072,54.6661305 L29.7225072,66.7444419 L14.2853174,66.7444419 L14.2853174,29.1475034 C14.2853174,28.0058342 13.3337945,27.0575101 12.1028779,27.0575101 C10.952389,27.0575101 10,28.0058342 10,29.1475034 L10,68.9100067 C10,70.0515533 10.952389,71 12.1028779,71 L31.9447894,71 C33.0952783,71 34.0476673,70.0515533 34.0476673,68.9100067 L34.0476673,56.8315726 L40.952209,56.8315726 L40.952209,68.9100067 C40.952209,70.0515533 41.904598,71 43.1347723,71 L62.8971221,71 C64.0477347,71 65,70.0515533 65,68.9100067 L65,28.1655648 C65,26.9402271 64.0477347,26 62.8971221,26 Z" id="Shape"></path>
                    <path d="M75.3798282,36.3651233 L58.095452,19.1754289 L58.095452,7.45483613 C58.095452,6.23476603 57.0996234,5.29250446 55.8651138,5.29250446 C54.709585,5.29250446 53.7538677,6.23488901 53.7538677,7.45483613 L53.7538677,14.8759761 L39.4960953,0.673184529 C39.0592173,0.235626883 38.5402538,0 38.0227806,0 C37.4254573,0 36.9072389,0.243989424 36.4696158,0.673184529 L0.665733018,36.1294964 C-0.193245238,36.9792781 -0.250121346,38.3423723 0.665733018,39.1248847 C1.46187435,40.0335731 2.83323432,39.9746664 3.69221257,39.1248847 L38.0227806,5.20826416 L72.2734985,39.4446289 C72.6302781,39.7980692 73.1494899,40 73.8266634,40 C74.4239867,40 74.9413357,39.7980692 75.3798282,39.4446289 C76.1767146,38.6537539 76.2361986,37.2233905 75.3798282,36.3651233 Z" id="Shape"></path>
                </g>
            </g>
        </g>
    </g>
</svg>