<?xml version="1.0" encoding="UTF-8"?>
<svg width="70px" height="70px" viewBox="0 0 70 70" version="1.1" xmlns="http://www.w3.org/2000/svg" xmlns:xlink="http://www.w3.org/1999/xlink">
    <!-- Generator: Sketch 46.2 (44496) - http://www.bohemiancoding.com/sketch -->
    <title>houseboat</title>
    <desc>Created with Sketch.</desc>
    <defs></defs>
    <g id="Icons" stroke="none" stroke-width="1" fill="none" fill-rule="evenodd">
        <g id="Artboard-2" transform="translate(-6.000000, -5.000000)" fill-rule="nonzero">
            <g id="houseboat" transform="translate(8.000000, 8.000000)">
                <rect id="Rectangle-path" fill="#FFFFFF" x="5.70646766" y="5.70646766" width="48.291874" height="3.71475954"></rect>
                <g id="Group" transform="translate(3.849088, 52.140962)" fill="#999999">
                    <path d="M11.3762928,2.26953905 L1.10476615,2.26953905 C0.496944872,2.26953905 0.00426447731,1.77314871 0.00426447731,1.16075046 C0.00426447731,0.548352215 0.496944872,0.0519618774 1.10476615,0.0519618774 L11.3761596,0.0519618774 C11.9839808,0.0519618774 12.4766612,0.548352215 12.4766612,1.16075046 C12.4767945,1.77314871 11.9839808,2.26953905 11.3762928,2.26953905 Z" id="Shape"></path>
                    <path d="M21.6476862,2.26953905 L15.7782995,2.26953905 C15.1704783,2.26953905 14.6777979,1.77314871 14.6777979,1.16075046 C14.6777979,0.548352215 15.1704783,0.0519618774 15.7782995,0.0519618774 L21.6476862,0.0519618774 C22.2555075,0.0519618774 22.7481879,0.548352215 22.7481879,1.16075046 C22.7481879,1.77314871 22.2555075,2.26953905 21.6476862,2.26953905 Z" id="Shape"></path>
                    <path d="M58.3307201,6.7046934 L48.0593267,6.7046934 C47.4513721,6.7046934 46.958825,6.20830306 46.958825,5.59590481 C46.958825,4.98350656 47.4513721,4.48711623 48.0593267,4.48711623 L58.3307201,4.48711623 C58.9386746,4.48711623 59.4312218,4.98350656 59.4312218,5.59590481 C59.4312218,6.20830306 58.9386746,6.7046934 58.3307201,6.7046934 Z" id="Shape"></path>
                    <path d="M43.65732,6.7046934 L37.7879333,6.7046934 C37.1799787,6.7046934 36.6874316,6.20830306 36.6874316,5.59590481 C36.6874316,4.98350656 37.1799787,4.48711623 37.7879333,4.48711623 L43.65732,4.48711623 C44.2652745,4.48711623 44.7578217,4.98350656 44.7578217,5.59590481 C44.7578217,6.20830306 44.2652745,6.7046934 43.65732,6.7046934 Z" id="Shape"></path>
                    <path d="M27.5170729,6.7046934 L15.7782995,6.7046934 C15.1704783,6.7046934 14.6777979,6.20830306 14.6777979,5.59590481 C14.6777979,4.98350656 15.1704783,4.48711623 15.7782995,4.48711623 L27.5170729,4.48711623 C28.1248942,4.48711623 28.6175746,4.98350656 28.6175746,5.59590481 C28.6175746,6.20830306 28.1248942,6.7046934 27.5170729,6.7046934 Z" id="Shape"></path>
                    <path d="M9.17515621,11.139982 L6.97415285,11.139982 C6.36633157,11.139982 5.87365118,10.6435917 5.87365118,10.0311934 C5.87365118,9.41879518 6.36633157,8.92240484 6.97415285,8.92240484 L9.17515621,8.92240484 C9.78297749,8.92240484 10.2756579,9.41879518 10.2756579,10.0311934 C10.2756579,10.6435917 9.78297749,11.139982 9.17515621,11.139982 Z" id="Shape"></path>
                </g>
                <path d="M31.1013104,13.1359867 L15.6018406,13.1359867 C15.0181694,13.1359867 14.5450643,13.5979419 14.5450643,14.1678574 L14.5450643,29.646043 L14.1927629,29.646043 C13.6090918,29.646043 13.1359867,30.1079982 13.1359867,30.6779137 C13.1359867,31.2478292 13.6090918,31.7097844 14.1927629,31.7097844 L32.510388,31.7097844 C33.0940591,31.7097844 33.5671642,31.2478292 33.5671642,30.6779137 C33.5671642,30.1079982 33.0940591,29.646043 32.510388,29.646043 L32.1580866,29.646043 L32.1580866,14.1678574 C32.1580866,13.5979419 31.6849815,13.1359867 31.1013104,13.1359867 Z M16.6586168,15.1997281 L30.0445341,15.1997281 L30.0445341,29.646043 L16.6586168,29.646043 L16.6586168,15.1997281 Z" id="Shape" fill="#999999"></path>
                <path d="M49.3548922,24.2802653 C48.8418523,24.2802653 48.4262023,24.6960278 48.4262023,25.2089552 L48.4262023,27.066335 C48.4262023,27.5792624 48.8418523,27.9950249 49.3548922,27.9950249 C49.8679321,27.9950249 50.2835821,27.5792624 50.2835821,27.066335 L50.2835821,25.2089552 C50.2835821,24.6961403 49.8679321,24.2802653 49.3548922,24.2802653 Z" id="Shape" fill="#999999"></path>
                <path d="M65.9212687,46.4293628 C64.2413993,46.4293628 62.6854664,45.5550141 61.6097388,44.0218021 L61.6097388,41.1166659 L65.9215299,41.1166659 C66.5173134,41.1166659 67,40.6338478 67,40.0381936 C67,39.4425395 66.5173134,38.9597214 65.9215299,38.9597214 L64.1241231,38.9597214 L64.1241231,35.7243046 C64.1241231,35.1286504 63.6414366,34.6458323 63.045653,34.6458323 C62.4498694,34.6458323 61.9671828,35.1286504 61.9671828,35.7243046 L61.9671828,38.9597214 L54.0583582,38.9597214 L54.0583582,14.1545983 C54.0583582,13.5589441 53.5756716,13.076126 52.9798881,13.076126 L37.1621082,13.076126 C36.5663246,13.076126 36.0836381,13.5589441 36.0836381,14.1545983 L36.0836381,38.9595908 L5.16727612,38.9595908 L5.16727612,32.4887572 L8.76222015,32.4887572 L8.76222015,35.724174 C8.76222015,36.3198281 9.24503731,36.8026462 9.8406903,36.8026462 C10.4363433,36.8026462 10.9191604,36.3198281 10.9191604,35.724174 L10.9191604,10.9191815 L15.5925746,10.9191815 C16.1882276,10.9191815 16.6710448,10.4363634 16.6710448,9.84070926 C16.6710448,9.24505511 16.1882276,8.762237 15.5925746,8.762237 L7.68466418,8.762237 L7.68466418,6.60516189 L59.4526679,6.60516189 L59.4526679,8.7621064 L19.9064552,8.7621064 C19.3108022,8.7621064 18.8279851,9.24492451 18.8279851,9.84057866 C18.8279851,10.4362328 19.3108022,10.9190509 19.9064552,10.9190509 L56.2152985,10.9190509 L56.2152985,35.7240434 C56.2152985,36.3196975 56.6979851,36.8025156 57.2937687,36.8025156 C57.8895522,36.8025156 58.3722388,36.3196975 58.3722388,35.7240434 L58.3722388,10.9191815 L60.5313993,10.9191815 C61.1271828,10.9191815 61.6098694,10.4363634 61.6098694,9.84070926 L61.6098694,5.52668964 C61.6098694,4.93103549 61.1271828,4.44821738 60.5313993,4.44821738 L21.3458955,4.44821738 L21.3458955,2.29127287 L21.7054291,2.29127287 C22.3010821,2.29127287 22.7838993,1.80845476 22.7838993,1.21280061 C22.7838993,0.617146465 22.3009515,0.134328358 21.7052985,0.134328358 L14.5154104,0.134328358 C13.9197575,0.134328358 13.4369403,0.617146465 13.4369403,1.21280061 C13.4369403,1.80845476 13.9197575,2.29127287 14.5154104,2.29127287 L14.874944,2.29127287 L14.874944,4.44821738 L6.60619403,4.44821738 C6.01054104,4.44821738 5.52772388,4.93103549 5.52772388,5.52668964 L5.52772388,9.84057866 C5.52772388,10.4362328 6.01054104,10.9190509 6.60619403,10.9190509 L8.76208955,10.9190509 L8.76208955,30.3316821 L1.21279851,30.3316821 C0.617145522,30.3316821 0.134328358,30.8145002 0.134328358,31.4101544 C0.134328358,32.0058085 0.617145522,32.4886266 1.21279851,32.4886266 L3.01020522,32.4886266 L3.01020522,38.9594602 L1.21279851,38.9594602 C0.617145522,38.9594602 0.134328358,39.4422783 0.134328358,40.0379324 C0.134328358,40.6335866 0.617145522,41.1164047 1.21279851,41.1164047 L5.52772388,41.1164047 L5.52772388,44.0223245 C4.45173507,45.5551447 2.89462687,46.4292322 1.2129291,46.4292322 C0.617276119,46.4292322 0.134458955,46.9120503 0.134458955,47.5077045 L66.9997388,47.5078351 M17.0318843,2.29127287 L19.1888246,2.29127287 L19.1888246,4.44821738 L17.0318843,4.44821738 L17.0318843,2.29127287 Z M38.2405784,15.2330705 L51.9012873,15.2330705 L51.9012873,38.9595908 L38.2405784,38.9595908 L38.2405784,15.2330705 Z M59.4527985,41.1165353 L59.4527985,44.0224551 C58.3769403,45.5552753 56.8193097,46.4293628 55.136306,46.4293628 C53.3684142,46.4293628 51.7351679,45.4604617 50.6552612,43.7713166 C50.4571455,43.4614093 50.1147201,43.2738716 49.7470896,43.273741 C49.3789366,43.273741 49.0367724,43.4611481 48.8383955,43.7706636 C47.7566604,45.4603311 46.1215858,46.4294934 44.3531716,46.4294934 C42.5842351,46.4294934 40.9503358,45.4605923 39.8702985,43.7713166 C39.6720522,43.4612787 39.3294963,43.273741 38.9616045,43.273741 C38.5930597,43.2738716 38.2506343,43.4616704 38.0525187,43.7719696 C36.9745709,45.4608535 35.3400187,46.4294934 33.568209,46.4294934 C31.7990112,46.4294934 30.1651119,45.4605923 29.0853358,43.7714472 C28.8872201,43.4615398 28.5447948,43.2740022 28.1770336,43.2738716 C27.8090112,43.2738716 27.4667164,43.4612787 27.2683396,43.7707942 C26.1866045,45.4604617 24.5516604,46.429624 22.7832463,46.429624 C21.0143097,46.429624 19.3802799,45.4607229 18.3003731,43.7715778 C18.1022575,43.4615398 17.7595709,43.2740022 17.3916791,43.2740022 C17.0232649,43.2741328 16.680709,43.4619316 16.4825933,43.7721002 C15.4043843,45.4609841 13.7699627,46.429624 11.998153,46.429624 C10.3189366,46.429624 8.76235075,45.5551447 7.68479478,44.0215409 L7.68479478,41.1165353 L59.4527985,41.1165353 L59.4527985,41.1165353 Z" id="Shape" fill="#999999"></path>
            </g>
        </g>
    </g>
</svg>