<?xml version="1.0" encoding="utf-8"?>
<!-- Generator: Adobe Illustrator 19.2.0, SVG Export Plug-In . SVG Version: 6.00 Build 0)  -->
<svg version="1.1" xmlns="http://www.w3.org/2000/svg" xmlns:xlink="http://www.w3.org/1999/xlink" x="0px" y="0px"
	 viewBox="25 -25 80 80" style="enable-background:new 25 -25 80 80;" xml:space="preserve">
<style type="text/css">
	.st0{fill:#FFFFFF;}
	.st1{fill:#0D5389;}
</style>
<g id="Layer_2">
	<g>
		<path class="st0" d="M65,52.5c-20.7,0-37.5-16.8-37.5-37.5S44.3-22.5,65-22.5S102.5-5.7,102.5,15S85.7,52.5,65,52.5z"/>
		<path class="st1" d="M65-22c20.4,0,37,16.6,37,37S85.4,52,65,52S28,35.4,28,15S44.6-22,65-22 M65-23C44-23,27-6,27,15s17,38,38,38
			s38-17,38-38S86-23,65-23L65-23z"/>
	</g>
</g>
<g id="Layer_1">
	<path class="st1" d="M78.3,18.1c-0.7,0-1.3,0.6-1.3,1.2c0,0.7,0.6,1.2,1.3,1.2h3.2C80.6,28,74.1,34,66.3,34.6v-22h4.4
		c0.7,0,1.3-0.6,1.3-1.2s-0.6-1.2-1.3-1.2h-4.4V5.2c2.9-0.5,5.1-3.2,5.1-6.1C71.3-4.2,68.5-7,65-7c-3.5,0-6.3,2.8-6.3,6.1
		c0,2.9,2.2,5.6,5.1,6.1v4.9h-4.4c-0.7,0-1.3,0.6-1.3,1.2s0.6,1.2,1.3,1.2h4.4v22C55.9,34,49.4,28,48.5,20.5h3.2
		c0.7,0,1.3-0.6,1.3-1.2c0-0.7-0.6-1.2-1.3-1.2H46v2.4C47,29.8,55.1,37,65,37s18.1-7.2,19-16.5v-2.4H78.3z M61.2-0.9
		c0-2,1.7-3.7,3.8-3.7c2.1,0,3.8,1.6,3.8,3.7S67.1,2.8,65,2.8C62.9,2.8,61.2,1.1,61.2-0.9z"/>
</g>
</svg>
