<?xml version="1.0" encoding="UTF-8" standalone="no"?>
<svg width="33px" height="33px" viewBox="0 0 33 33" version="1.1" xmlns="http://www.w3.org/2000/svg" xmlns:xlink="http://www.w3.org/1999/xlink">
    <!-- Generator: Sketch 43.1 (39012) - http://www.bohemiancoding.com/sketch -->
    <title>Marina-logo</title>
    <desc>Created with Sketch.</desc>
    <defs></defs>
    <g id="Symbols" stroke="none" stroke-width="1" fill="none" fill-rule="evenodd">
        <g id="Header" fill="#212F57">
            <g id="Group-3">
                <g id="Group-2">
                    <path d="M18.2977003,18.9884321 L16.464669,17.6563066 L14.6316376,18.9884321 L15.3315679,16.8334495 L13.4993728,15.5021603 L15.7647387,15.5021603 L16.464669,13.3471777 L17.1645993,15.5021603 L19.4299652,15.5021603 L17.5969338,16.8334495 L18.2977003,18.9884321 L18.2977003,18.9884321 Z M31.2861324,14.6609059 C30.9683624,12.0275958 29.9523345,9.46202091 28.2363763,7.26940767 L25.6356794,9.87010453 C26.6767944,11.3159582 27.3307317,12.9541463 27.6050174,14.6425087 L21.2278746,14.6425087 C20.9744948,13.9810453 20.5881533,13.373101 20.0721951,12.8571429 C18.850453,11.6354007 17.1579094,11.167108 15.5724042,11.4464111 L12.2843206,5.97324042 C13.5972125,5.4497561 15.0087805,5.1712892 16.464669,5.1712892 C18.8655052,5.1712892 21.1509408,5.91721254 23.0600697,7.29616725 L25.6607666,4.69547038 C23.5158188,3.01296167 20.975331,1.96013937 18.2684321,1.63567944 C18.173101,0.718327526 17.407108,0 16.464669,0 C15.52223,0 14.7562369,0.718327526 14.6617422,1.63567944 C11.954007,1.96013937 9.41351916,3.01296167 7.26857143,4.69547038 L7.26606272,4.69714286 L12.4490592,13.3229268 C12.1321254,13.7268293 11.8820906,14.1700348 11.7014634,14.6425087 L5.32432056,14.6425087 C5.59860627,12.9541463 6.25254355,11.3159582 7.2928223,9.87010453 L4.69212544,7.26940767 C2.97700348,9.46202091 1.96097561,12.0267596 1.64320557,14.6609059 C0.721672474,14.7520557 0,15.5197213 0,16.464669 C0,17.4096167 0.721672474,18.1772822 1.64320557,18.2692683 C1.96097561,20.9025784 2.97700348,23.4673171 4.69212544,25.6599303 L7.2928223,23.0592334 C6.25254355,21.6133798 5.59860627,19.9751916 5.32432056,18.2868293 L11.7014634,18.2868293 C11.7006272,18.285993 11.7006272,18.2851568 11.7006272,18.2843206 C11.9531707,18.9466202 12.3403484,19.5562369 12.8571429,20.0721951 C13.8514286,21.0664808 15.1576307,21.5640418 16.464669,21.5640418 C16.7615331,21.5640418 17.0583972,21.5347735 17.3519164,21.4829268 L20.6425087,26.9594425 C17.121115,28.3559582 13.0352613,27.91777 9.87010453,25.6398606 L7.26940767,28.2405575 C9.46202091,29.9556794 12.0267596,30.9750523 14.6609059,31.2936585 C14.7554007,32.2110105 15.52223,32.929338 16.464669,32.929338 C17.407108,32.929338 18.173101,32.2110105 18.2675958,31.2936585 C20.9017422,30.9750523 23.4664808,29.9565157 25.6599303,28.2405575 L25.662439,28.238885 L20.4786063,19.6114286 C20.4727526,19.6189547 20.4660627,19.6256446 20.4602091,19.6331707 C20.7871777,19.2217422 21.0439024,18.7676655 21.2287108,18.2834843 C21.2278746,18.2851568 21.2278746,18.285993 21.2278746,18.2868293 L27.6050174,18.2868293 C27.3307317,19.9751916 26.6767944,21.6133798 25.6356794,23.0592334 L28.2363763,25.6599303 C29.9523345,23.4673171 30.9683624,20.9025784 31.2861324,18.2692683 C32.2068293,18.1781185 32.929338,17.410453 32.929338,16.4655052 C32.929338,15.5197213 32.2068293,14.7520557 31.2861324,14.6609059 L31.2861324,14.6609059 Z" id="Marina-logo"></path>
                </g>
            </g>
        </g>
    </g>
</svg>