<?xml version="1.0" encoding="UTF-8"?>
<svg width="80px" height="80px" viewBox="0 0 80 80" version="1.1" xmlns="http://www.w3.org/2000/svg" xmlns:xlink="http://www.w3.org/1999/xlink">
    <!-- Generator: Sketch 46.2 (44496) - http://www.bohemiancoding.com/sketch -->
    <title>more</title>
    <desc>Created with Sketch.</desc>
    <defs></defs>
    <g id="Icons" stroke="none" stroke-width="1" fill="none" fill-rule="evenodd">
        <g id="more" fill-rule="nonzero" fill="#868686">
            <g transform="translate(4.000000, 4.000000)" id="Shape">
                <path d="M71.4,34.6 C71,34.2 70.5,34 70,34 L38,34 L38,2 C38,1.5 37.8,1 37.4,0.6 C36.6,-0.2 35.4,-0.2 34.6,0.6 C34.2,1 34,1.5 34,2 L34,34 L2,34 C1.5,34 1,34.2 0.6,34.6 C-0.2,35.4 -0.2,36.6 0.6,37.4 C1,37.8 1.5,38 2,38 L34,38 L34,70 C34,70.5 34.2,71 34.6,71.4 C35.4,72.2 36.6,72.2 37.4,71.4 C37.8,71 38,70.5 38,70 L38,38 L70,38 C70.5,38 71,37.8 71.4,37.4 C72.2,36.6 72.2,35.4 71.4,34.6 Z"></path>
            </g>
        </g>
    </g>
</svg>