<?xml version="1.0" encoding="UTF-8"?>
<svg width="72px" height="72px" viewBox="0 0 72 72" version="1.1" xmlns="http://www.w3.org/2000/svg" xmlns:xlink="http://www.w3.org/1999/xlink">
    <!-- Generator: Sketch 46.2 (44496) - http://www.bohemiancoding.com/sketch -->
    <title>Person</title>
    <desc>Created with Sketch.</desc>
    <defs></defs>
    <g id="Icons" stroke="none" stroke-width="1" fill="none" fill-rule="evenodd">
        <g id="Person" transform="translate(-6.000000, -7.000000)" fill-rule="nonzero" fill="#868686">
            <g transform="translate(6.000000, 7.000000)" id="Group">
                <g transform="translate(0.000000, 4.408163)">
                    <path d="M53.1249085,62.4444245 L8.67071494,62.4444245 C4.11163134,62.4444245 0.40555102,58.7018449 0.40555102,54.0978612 L0.40555102,51.3346286 C0.40555102,42.3583347 7.35888348,34.9805878 16.2372087,34.538302 L17.2382883,34.4898612 L17.8472785,35.2944 C21.1988097,39.7341061 25.949767,42.2825143 30.8800843,42.2825143 C35.808316,42.2825143 40.5613588,39.7341061 43.9170612,35.2944 L44.5218802,34.4919673 L45.5208743,34.538302 C54.4179697,34.9595265 61.3859013,42.3372735 61.3859013,51.3346286 L61.3859013,54.0978612 C61.3900724,58.7018449 57.6819065,62.4444245 53.1249085,62.4444245 Z M15.4780566,38.4683265 C9.09200263,39.2602286 4.22008163,44.7382531 4.22008163,51.3346286 L4.22008163,54.0978612 C4.22008163,56.5767673 6.21806978,58.5944327 8.67280053,58.5944327 L53.1249085,58.5944327 C55.5796392,58.5944327 57.5776274,56.5767673 57.5776274,54.0978612 L57.5776274,51.3346286 C57.5776274,44.7214041 52.6911073,39.2433796 46.2904542,38.4662204 C42.2485951,43.3524245 36.6884319,46.1346122 30.8821698,46.1346122 C25.0759078,46.1346122 19.5157446,43.3545306 15.4780566,38.4683265 Z" id="Shape"></path>
                    <path d="M30.8821698,40.7850612 C21.9454483,40.7850612 14.6751073,31.8214041 14.6751073,20.8063837 C14.6751073,9.78925714 21.9433627,0.8256 30.8821698,0.8256 C39.820977,0.8256 47.0892324,9.78925714 47.0892324,20.8063837 C47.0871468,31.8214041 39.8188914,40.7850612 30.8821698,40.7850612 Z M30.8821698,4.67348571 C24.0498012,4.67348571 18.4896379,11.9101224 18.4896379,20.8042776 C18.4896379,29.6984327 24.0498012,36.9329633 30.8821698,36.9329633 C37.7145385,36.9329633 43.2747018,29.6963265 43.2747018,20.8042776 C43.2747018,11.9101224 37.7145385,4.67348571 30.8821698,4.67348571 Z" id="Shape"></path>
                </g>
                <g transform="translate(42.142857, 0.000000)">
                    <path d="M26.8866286,49.4290286 C25.8477714,49.4290286 25.0064,48.563618 25.0064,47.4950792 L25.0064,45.0596571 C25.0064,39.3889959 20.9250286,34.6853094 15.5538286,33.9574335 C14.8749714,34.7847576 14.1446857,35.5486041 13.3732571,36.2383935 C12.5915429,36.9387624 11.4025143,36.8541257 10.7195429,36.0458449 C10.0386286,35.23968 10.1229714,34.0187951 10.9067429,33.3163102 C11.7398857,32.569391 12.5195429,31.7124441 13.2230857,30.7666286 L13.8217143,29.9604637 L14.8070857,30.0070139 C22.6365714,30.3857633 28.7668571,36.9980082 28.7668571,45.0575412 L28.7668571,47.4929633 C28.7668571,48.563618 27.9254857,49.4290286 26.8866286,49.4290286 Z" id="Shape"></path>
                    <path d="M11.5115429,30.4344294 C11.1433143,30.4344294 10.7750857,30.3244016 10.448,30.0958824 C9.59222857,29.4907298 9.37622857,28.2867722 9.96251429,27.4065502 C11.6761143,24.8420571 12.6203429,21.5454563 12.6203429,18.1282482 C12.6203429,10.4136098 7.90742857,4.13779592 2.11657143,4.13779592 C1.07771429,4.13779592 0.236342857,3.27238531 0.236342857,2.20384653 C0.236342857,1.13530776 1.07771429,0.269897143 2.11657143,0.269897143 C9.98308571,0.269897143 16.3828571,8.28076408 16.3828571,18.1282482 C16.3828571,22.3198824 15.2061714,26.3930253 13.0667429,29.5965257 C12.6985143,30.1403167 12.1101714,30.4344294 11.5115429,30.4344294 Z" id="Shape"></path>
                </g>
            </g>
        </g>
    </g>
</svg>