<?xml version="1.0" encoding="UTF-8"?>
<svg width="70px" height="70px" viewBox="0 0 70 70" version="1.1" xmlns="http://www.w3.org/2000/svg" xmlns:xlink="http://www.w3.org/1999/xlink">
    <!-- Generator: Sketch 46.2 (44496) - http://www.bohemiancoding.com/sketch -->
    <title>Present</title>
    <desc>Created with Sketch.</desc>
    <defs></defs>
    <g id="Icons" stroke="none" stroke-width="1" fill="none" fill-rule="evenodd">
        <g id="Artboard" transform="translate(-7.000000, -5.000000)" fill="#868686">
            <g id="Present" transform="translate(7.000000, 8.000000)">
                <path d="M65.8636364,22.065426 L43.3806136,22.065426 C42.0257045,20.2674535 40.6253182,18.159323 39.3519545,15.7693736 L65.8636364,15.7693736 L65.8636364,22.065426 Z M62.7272727,40.9583063 L36.0681818,40.9583063 L36.0681818,25.2142394 L41.814,25.2142394 C44.7904091,28.9377112 47.3261591,31.0962228 47.5378636,31.2757051 C47.9455909,31.6126282 48.4725,31.7133902 48.9492273,31.5842888 C49.2503182,31.5039941 49.5294545,31.3339582 49.7474318,31.0726067 C50.2994318,30.4066326 50.2100455,29.4116076 49.5467045,28.8542676 C49.5075,28.8227795 47.9895,27.523894 45.9461591,25.2142394 L62.7272727,25.2142394 L62.7272727,40.9583063 Z M36.0681818,59.8511866 L62.7272727,59.8511866 L62.7272727,44.1071197 L36.0681818,44.1071197 L36.0681818,59.8511866 Z M36.0681818,16.2700349 C37.1376818,18.4049304 38.3044091,20.3445995 39.48525,22.065426 L36.0681818,22.065426 L36.0681818,16.2700349 Z M41.1161591,4.41002933 C44.8656818,2.23577368 49.3099091,2.91749178 51.04275,5.92775738 C52.2063409,7.95086998 51.8237045,10.4966856 50.3292273,12.6189858 L37.8386591,12.6189858 C37.5030682,11.8428033 37.1862955,11.0461535 36.8946136,10.2243132 C37.2255,8.01699506 38.7168409,5.80180484 41.1161591,4.41002933 L41.1161591,4.41002933 Z M32.9318182,22.065426 L29.4661364,22.065426 C30.6657955,20.3178346 31.8497727,18.3482518 32.9318182,16.1739961 L32.9318182,22.065426 Z M32.9318182,40.9583063 L6.27272727,40.9583063 L6.27272727,25.2142394 L23.0067955,25.2142394 C20.9634545,27.523894 19.4423182,28.8227795 19.4046818,28.8542676 C18.7413409,29.4116076 18.6519545,30.4066326 19.2055227,31.0726067 C19.4219318,31.3339582 19.7010682,31.5039941 20.0021591,31.5842888 C20.4788864,31.7133902 21.0042273,31.6126282 21.4119545,31.2757051 C21.6252273,31.0962228 24.1578409,28.9377112 27.1373864,25.2142394 L32.9318182,25.2142394 L32.9318182,40.9583063 Z M6.27272727,59.8511866 L32.9318182,59.8511866 L32.9318182,44.1071197 L6.27272727,44.1071197 L6.27272727,59.8511866 Z M3.13636364,22.065426 L3.13636364,15.7693736 L29.5994318,15.7693736 C28.3260682,18.159323 26.9256818,20.2674535 25.5723409,22.065426 L3.13636364,22.065426 Z M17.9086364,5.92775738 C19.6399091,2.91749178 24.0841364,2.23577368 27.8352273,4.41002933 C30.2345455,5.80180484 31.7243182,8.01856947 32.0552045,10.2258877 C31.7650909,11.0461535 31.4483182,11.8428033 31.1127273,12.6189858 L18.6221591,12.6189858 C17.1276818,10.4966856 16.7466136,7.95086998 17.9086364,5.92775738 L17.9086364,5.92775738 Z M65.8636364,12.6189858 L53.9031136,12.6189858 C55.1341364,9.90470869 55.2141136,6.88184784 53.7588409,4.35335069 C51.1603636,-0.163622116 44.7966818,-1.3601712 39.5479773,1.68473134 C37.5265909,2.85451551 36.0258409,4.50134492 35.0269091,6.32135905 C34.9751591,6.30089177 34.9359545,6.26310601 34.8826364,6.24893634 C34.8497045,6.2394899 34.8152045,6.24736194 34.7822727,6.24106431 C34.6944545,6.22217143 34.6082045,6.22217143 34.5203864,6.22059702 C34.4435455,6.22217143 34.3682727,6.22217143 34.293,6.23476668 C34.2177273,6.24421312 34.1440227,6.22689465 34.06875,6.24893634 C34.0122955,6.26310601 33.9762273,6.30089177 33.9244773,6.32135905 C32.9255455,4.50134492 31.4247955,2.85451551 29.4034091,1.68473134 C24.1531364,-1.3601712 17.7910227,-0.163622116 15.1909773,4.35335069 C13.7388409,6.88184784 13.8156818,9.90470869 15.0482727,12.6189858 L3.13636364,12.6189858 C1.40509091,12.6189858 0,14.0296542 0,15.7693736 L0,22.065426 C0,23.8051454 1.40509091,25.2142394 3.13636364,25.2142394 L3.13636364,59.8511866 C3.13636364,61.5893316 4.54145455,63 6.27272727,63 L62.7272727,63 C64.4585455,63 65.8636364,61.5893316 65.8636364,59.8511866 L65.8636364,25.2142394 C67.5949091,25.2142394 69,23.8051454 69,22.065426 L69,15.7693736 C69,14.0296542 67.5949091,12.6189858 65.8636364,12.6189858 L65.8636364,12.6189858 Z" id="Fill-1"></path>
            </g>
        </g>
    </g>
</svg>