<?xml version="1.0" encoding="UTF-8"?>
<svg width="80px" height="80px" viewBox="0 0 80 80" version="1.1" xmlns="http://www.w3.org/2000/svg" xmlns:xlink="http://www.w3.org/1999/xlink">
    <!-- Generator: Sketch 46.2 (44496) - http://www.bohemiancoding.com/sketch -->
    <title>refresh</title>
    <desc>Created with Sketch.</desc>
    <defs></defs>
    <g id="Icons" stroke="none" stroke-width="1" fill="none" fill-rule="evenodd">
        <g id="refresh" fill-rule="nonzero" fill="#868686">
            <g transform="translate(9.000000, 2.000000)" id="Shape">
                <path d="M62.2,37.5 C62.2,38.6 61.3,39.5 60.2,39.5 C59.1,39.5 58.2,38.6 58.2,37.5 C58.2,22.6 46.1,10.5 31.2,10.5 C25.7,10.5 20.4,12.2 15.9,15.3 L24.1,19.8 C25.1,20.3 25.4,21.5 24.9,22.5 C24.5,23.2 23.9,23.5 23.1,23.5 C22.8,23.5 22.4,23.4 22.1,23.3 L10,16.5 L13.3,2 C13.5,0.9 14.6,0.3 15.7,0.5 C16.8,0.7 17.4,1.8 17.2,2.9 L15.4,10.8 C20.2,8 25.7,6.4 31.3,6.4 C48.3,6.5 62.2,20.4 62.2,37.5 Z M38.2,52.7 C37.2,52.2 36,52.5 35.5,53.5 C35,54.5 35.3,55.7 36.3,56.2 L44.8,60.8 C40.7,63.2 36.1,64.4 31.3,64.4 C16.4,64.4 4.3,52.3 4.3,37.4 C4.3,36.3 3.4,35.4 2.3,35.4 C1.2,35.4 0.3,36.3 0.3,37.4 C0.3,54.5 14.2,68.4 31.3,68.4 C36.2,68.4 40.9,67.3 45.2,65.1 L43.4,72.9 C43.2,74 43.8,75.1 44.9,75.3 C45.1,75.3 45.2,75.4 45.4,75.4 C46.3,75.4 47.1,74.8 47.3,73.9 L50.6,59.4 L38.2,52.7 Z"></path>
            </g>
        </g>
    </g>
</svg>