<?xml version="1.0" encoding="UTF-8"?>
<svg width="80px" height="80px" viewBox="0 0 80 80" version="1.1" xmlns="http://www.w3.org/2000/svg" xmlns:xlink="http://www.w3.org/1999/xlink">
    <!-- Generator: Sketch 46.2 (44496) - http://www.bohemiancoding.com/sketch -->
    <title>remove</title>
    <desc>Created with Sketch.</desc>
    <defs></defs>
    <g id="Icons" stroke="none" stroke-width="1" fill="none" fill-rule="evenodd">
        <g id="remove" fill-rule="nonzero" fill="#868686">
            <g id="Remove" transform="translate(6.000000, 4.000000)">
                <path d="M12.5,10 L17,10 L17,6.5 C17,2.91014913 20.5889027,0 25.0000405,0 L38.9999595,0 C43.4182599,0 47,2.91745375 47,6.5 L47,10 L51.5,10 L62,10 C63.1045695,10 64,10.8954305 64,12 C64,13.1045695 63.1045695,14 62,14 L56,14 L56,64.0056874 C56,68.4208243 52.4118288,72 47.9929031,72 L16.0070969,72 C11.5848994,72 8,68.42131 8,64.0056874 L8,14 L2,14 C0.8954305,14 0,13.1045695 0,12 C0,10.8954305 0.8954305,10 2,10 L12.5,10 Z M21,10 L43,10 L43,7.5 C43,5.57154929 41.2053277,4 38.9999595,4 L25.0000405,4 C22.79501,4 21,5.56965508 21,7.5 L21,10 Z M12,64.0056874 C12,66.2105336 13.7924033,68 16.0070969,68 L47.9929031,68 C50.2055016,68 52,66.2088722 52,64.0056874 L52,14 L12,14 L12,64.0056874 Z M20,26 C20,24.8954305 20.8954305,24 22,24 C23.1045695,24 24,24.8954305 24,26 L24,56 C24,57.1045695 23.1045695,58 22,58 C20.8954305,58 20,57.1045695 20,56 L20,26 Z M30,26 C30,24.8954305 30.8954305,24 32,24 C33.1045695,24 34,24.8954305 34,26 L34,56 C34,57.1045695 33.1045695,58 32,58 C30.8954305,58 30,57.1045695 30,56 L30,26 Z M40,26 C40,24.8954305 40.8954305,24 42,24 C43.1045695,24 44,24.8954305 44,26 L44,56 C44,57.1045695 43.1045695,58 42,58 C40.8954305,58 40,57.1045695 40,56 L40,26 Z"></path>
            </g>
        </g>
    </g>
</svg>