<?xml version="1.0" encoding="UTF-8"?>
<svg width="80px" height="80px" viewBox="0 0 80 80" version="1.1" xmlns="http://www.w3.org/2000/svg" xmlns:xlink="http://www.w3.org/1999/xlink">
    <!-- Generator: Sketch 46.2 (44496) - http://www.bohemiancoding.com/sketch -->
    <title>search</title>
    <desc>Created with Sketch.</desc>
    <defs></defs>
    <g id="Icons" stroke="none" stroke-width="1" fill="none" fill-rule="evenodd">
        <g id="search" fill-rule="nonzero" fill="#868686">
            <g transform="translate(4.000000, 4.000000)" id="Shape">
                <path d="M71.4,68.6 L71.3,68.5 L54.3,51.5 C65,39.3 64.6,20.7 52.9,9.1 C46.9,3 38.9,0 31,0 C23.1,0 15.1,3 9.1,9.1 C-3,21.2 -3,40.8 9.1,52.9 C15.1,59 23.1,62 31,62 C38.3,62 45.6,59.4 51.5,54.3 L68.5,71.3 L68.6,71.4 C69.4,72.2 70.6,72.2 71.4,71.4 C72.2,70.6 72.2,69.4 71.4,68.6 Z M50.1,50.1 C45,55.2 38.2,58 31,58 C23.8,58 17,55.2 11.9,50.1 C1.4,39.6 1.4,22.4 11.9,11.9 C17,6.8 23.8,4 31,4 C38.2,4 45,6.8 50.1,11.9 C60.6,22.4 60.6,39.6 50.1,50.1 Z"></path>
            </g>
        </g>
    </g>
</svg>