<?xml version="1.0" encoding="UTF-8"?>
<svg width="80px" height="80px" viewBox="0 0 80 80" version="1.1" xmlns="http://www.w3.org/2000/svg" xmlns:xlink="http://www.w3.org/1999/xlink">
    <!-- Generator: Sketch 46.2 (44496) - http://www.bohemiancoding.com/sketch -->
    <title>send</title>
    <desc>Created with Sketch.</desc>
    <defs></defs>
    <g id="Icons" stroke="none" stroke-width="1" fill="none" fill-rule="evenodd">
        <g id="send" fill-rule="nonzero" fill="#868686">
            <g transform="translate(8.000000, 9.000000)" id="Shape">
                <path d="M63.4,0.6 C62.8,-1.43635104e-15 62,-0.1 61.2,0.2 L2.2,23.6 C1.5,23.9 1,24.6 0.9,25.4 C0.9,26.2 1.3,26.9 2,27.3 L25,39 L36.7,61.9 C36.8,62.1 36.9,62.3 37.1,62.4 C37.5,62.8 38,63 38.6,63 C39.4,63 40.1,62.5 40.4,61.7 L63.8,2.7 C64.2,2 64,1.2 63.4,0.6 Z M7.9,25.7 L53.5,7.7 L26.5,34.7 L7.9,25.7 Z M38.3,56.1 L29.3,37.5 L56.3,10.5 L38.3,56.1 Z"></path>
                <path d="M22.2,41.8 C21.4,41 20.1,41 19.4,41.8 L6.6,54.6 C5.8,55.4 5.8,56.7 6.6,57.4 C7.4,58.2 8.7,58.2 9.4,57.4 L22.2,44.6 C23,43.9 23,42.6 22.2,41.8 Z"></path>
                <path d="M22.2,50.3 L15.1,57.4 C14.3,58.2 14.3,59.5 15.1,60.2 C15.9,61 17.2,61 17.9,60.2 L25,53.1 C25.8,52.3 25.8,51 25,50.3 C24.3,49.5 23,49.5 22.2,50.3 Z"></path>
                <path d="M9.4,46.1 L13.7,41.8 C14.5,41 14.5,39.7 13.7,39 C12.9,38.2 11.6,38.2 10.9,39 L6.6,43.3 C5.8,44.1 5.8,45.4 6.6,46.1 C7.3,46.9 8.6,46.9 9.4,46.1 Z"></path>
            </g>
        </g>
    </g>
</svg>