<?xml version="1.0" encoding="UTF-8"?>
<svg width="75px" height="75px" viewBox="0 0 75 75" version="1.1" xmlns="http://www.w3.org/2000/svg" xmlns:xlink="http://www.w3.org/1999/xlink">
    <!-- Generator: Sketch 46.2 (44496) - http://www.bohemiancoding.com/sketch -->
    <title>star outline</title>
    <desc>Created with Sketch.</desc>
    <defs></defs>
    <g id="Icons" stroke="none" stroke-width="1" fill="none" fill-rule="evenodd">
        <g id="star-outline" transform="translate(-3.000000, -2.000000)" fill="#868686">
            <g transform="translate(3.000000, 2.000000)" id="Page-1">
                <path d="M37.4991477,0 L27.273812,27.2727273 L0,27.2727273 L22.1585873,44.3198864 L11.9332515,75 L37.4991477,56.25 L63.0667485,75 L52.8397082,44.3198864 L75,27.2727273 L47.726188,27.2727273 L37.4991477,0 Z M25.3808933,45.5580895 L26.1485732,43.2637453 L24.2242556,41.7879606 L10,30.895345 L29.6287221,30.895345 L30.4578164,28.6910083 L37.498294,10 L44.5387717,28.6910083 L45.369572,30.895345 L65,30.895345 L50.7723325,41.7879606 L48.8480149,43.2637453 L56.4616935,66 L39.5164392,53.6315997 L37.498294,52.1592115 L35.4801489,53.6315997 L18.5366005,66 L25.3808933,45.5580895 Z"></path>
            </g>
        </g>
    </g>
</svg>