<?xml version="1.0" encoding="utf-8"?>
<!-- Generator: Adobe Illustrator 17.0.0, SVG Export Plug-In . SVG Version: 6.00 Build 0)  -->
<!DOCTYPE svg PUBLIC "-//W3C//DTD SVG 1.1//EN" "http://www.w3.org/Graphics/SVG/1.1/DTD/svg11.dtd">
<svg version="1.1" id="Camada_1" xmlns="http://www.w3.org/2000/svg" xmlns:xlink="http://www.w3.org/1999/xlink" x="0px" y="0px"
	 width="30px" height="30px" viewBox="0 0 30 30" enable-background="new 0 0 30 30" xml:space="preserve">
<title>Tracker/Active Copy</title>
<desc>Created with Sketch.</desc>
<g id="Symbols">
	<g id="Welcome_x2F_1" transform="translate(-787.000000, -220.000000)">
		<g id="_x32_-copy-5" transform="translate(787.000000, 220.000000)">
			<g id="Tracker_x2F_Active-Copy">
				<g id="Oval">
					<path fill="#B19378" d="M15,30C6.729,30,0,23.271,0,15C0,6.729,6.729,0,15,0c8.271,0,15,6.729,15,15C30,23.271,23.271,30,15,30
						z M15,1C7.28,1,1,7.28,1,15s6.28,14,14,14s14-6.28,14-14S22.72,1,15,1z"/>
				</g>
				<g enable-background="new    ">
					<path fill="#B19378" d="M19.12,17.375h-1.695V20h-1.242v-2.625h-5.554v-1.133l5.421-7.727h1.375v7.68h1.695V17.375z
						 M16.183,16.195v-3.797c0-0.745,0.026-1.586,0.078-2.523h-0.062c-0.25,0.5-0.484,0.914-0.703,1.242l-3.57,5.078H16.183z"/>
				</g>
			</g>
		</g>
	</g>
</g>
</svg>
