<?xml version="1.0" encoding="utf-8"?>
<!-- Generator: Adobe Illustrator 17.0.0, SVG Export Plug-In . SVG Version: 6.00 Build 0)  -->
<!DOCTYPE svg PUBLIC "-//W3C//DTD SVG 1.1//EN" "http://www.w3.org/Graphics/SVG/1.1/DTD/svg11.dtd">
<svg version="1.1" id="Camada_1" xmlns="http://www.w3.org/2000/svg" xmlns:xlink="http://www.w3.org/1999/xlink" x="0px" y="0px"
	 width="30px" height="30px" viewBox="0 0 30 30" enable-background="new 0 0 30 30" xml:space="preserve">
<title>Tracker/Active Copy</title>
<desc>Created with Sketch.</desc>
<g id="Symbols">
	<g id="Welcome_x2F_1" transform="translate(-574.000000, -220.000000)">
		<g id="_x32_-copy-4" transform="translate(574.000000, 220.000000)">
			<g id="Tracker_x2F_Active-Copy">
				<g enable-background="new    ">
					<path fill="#B19378" d="M18.151,11.266c0,0.729-0.204,1.325-0.613,1.789s-0.988,0.773-1.738,0.93v0.062
						c0.917,0.114,1.597,0.406,2.039,0.875s0.664,1.083,0.664,1.844c0,1.089-0.378,1.926-1.133,2.512s-1.828,0.879-3.218,0.879
						c-0.604,0-1.158-0.046-1.66-0.137c-0.503-0.091-0.991-0.251-1.465-0.48v-1.234c0.495,0.245,1.022,0.431,1.582,0.559
						c0.56,0.128,1.09,0.191,1.59,0.191c1.973,0,2.96-0.773,2.96-2.32c0-1.386-1.089-2.078-3.265-2.078h-1.125v-1.117h1.141
						c0.891,0,1.596-0.196,2.117-0.59c0.521-0.394,0.781-0.938,0.781-1.637c0-0.558-0.191-0.995-0.574-1.312
						c-0.383-0.317-0.902-0.477-1.558-0.477c-0.5,0-0.972,0.067-1.414,0.203c-0.443,0.136-0.948,0.386-1.516,0.75L11.09,9.603
						c0.469-0.37,1.009-0.66,1.621-0.871s1.256-0.316,1.934-0.316c1.109,0,1.971,0.254,2.585,0.762S18.151,10.38,18.151,11.266z"/>
				</g>
			</g>
		</g>
	</g>
</g>
</svg>
