<?xml version="1.0" encoding="UTF-8" standalone="no"?>
<svg width="30px" height="30px" viewBox="0 0 30 30" version="1.1" xmlns="http://www.w3.org/2000/svg" xmlns:xlink="http://www.w3.org/1999/xlink">
    <!-- Generator: Sketch 43.1 (39012) - http://www.bohemiancoding.com/sketch -->
    <title>Tracker/Active</title>
    <desc>Created with Sketch.</desc>
    <defs></defs>
    <g id="Symbols" stroke="none" stroke-width="1" fill="none" fill-rule="evenodd">
        <g id="Welcome/2" transform="translate(-173.000000, -220.000000)">
            <g id="Group-2" transform="translate(173.000000, 220.000000)">
                <g id="1">
                    <g id="Group-19">
                        <g id="1-copy">
                            <g id="Tracker/Active">
                                <g id="Group-18" fill="#0D5389">
                                    <circle id="Oval" cx="15" cy="15" r="15"></circle>
                                </g>
                                <g id="Checkmark" transform="translate(5.000000, 5.000000)">
                                    <rect id="Rectangle-5" x="0" y="0" width="20" height="20"></rect>
                                    <path d="M15.5575758,5.25 L7.66666667,13 L4.44242424,9.83333333 C4.1030303,9.5 3.59393939,9.5 3.25454545,9.83333333 C2.91515152,10.1666667 2.91515152,10.6666667 3.25454545,11 L7.07272727,14.75 C7.41212121,15.0833333 7.92121212,15.0833333 8.26060606,14.75 C8.3030303,14.7083333 8.3030303,14.7083333 8.34545455,14.6666667 L16.7454545,6.41666667 C17.0848485,6.08333333 17.0848485,5.58333333 16.7454545,5.25 C16.4060606,4.91666667 15.8969697,4.91666667 15.5575758,5.25 Z" id="Check" fill="#FFFFFF" fill-rule="nonzero"></path>
                                </g>
                            </g>
                        </g>
                    </g>
                </g>
            </g>
        </g>
    </g>
</svg>