<?xml version="1.0" encoding="UTF-8"?>
<svg width="80px" height="80px" viewBox="0 0 80 80" version="1.1" xmlns="http://www.w3.org/2000/svg" xmlns:xlink="http://www.w3.org/1999/xlink">
    <!-- Generator: Sketch 46.2 (44496) - http://www.bohemiancoding.com/sketch -->
    <title>Swimming</title>
    <desc>Created with Sketch.</desc>
    <defs></defs>
    <g id="Icons" stroke="none" stroke-width="1" fill="none" fill-rule="evenodd">
        <g id="Swimming">
            <g id="swimming" transform="translate(2.000000, 5.000000)">
                <g id="Group">
                    <path d="M30.4,39.52 L30.4,51.4467459 C32.00664,51.8612194 33.15177,52.5266601 34.20855,53.1410973 C35.72551,54.0232574 36.92384,54.72 39.56427,54.72 C42.2047,54.72 43.40303,54.0232574 44.91999,53.1410973 C45.95701,52.5380761 47.08067,51.8873656 48.64,51.4716033 L48.64,39.5201841 L30.4,39.5201841 L30.4,39.52 Z" id="Shape"></path>
                    <rect id="Rectangle-path" x="30.4" y="24.32" width="18.24" height="12.16"></rect>
                    <path d="M28.0389488,51.6563334 L28.0389488,40.2161608 L45.889903,40.2161608 L45.889903,51.68 C46.8596189,51.426555 48.0000345,51.2635377 49.4043096,51.2635377 C49.4745977,51.2635377 49.5398653,51.2665402 49.6088518,51.2672467 L49.6088518,14.2995975 C49.6088518,8.36262588 54.6941424,3.53233474 60.9449515,3.53233474 C67.1957606,3.53233474 72.2810512,8.36262588 72.2810512,14.2995975 C72.2810512,15.2748751 73.1135379,16.0657649 74.1405256,16.0657649 C75.1675133,16.0657649 76,15.2748751 76,14.2995975 C76,6.41471988 69.246389,6.27468697e-16 60.9449515,6.27468697e-16 C52.643514,6.27468697e-16 45.889903,6.41471988 45.889903,14.2995975 L45.889903,21.1415533 L28.0389488,21.1415533 L28.0389488,14.2995975 C28.0389488,8.36262588 33.1242394,3.53233474 39.3750485,3.53233474 C40.8501695,3.53233474 42.2841962,3.79708323 43.6375217,4.31898568 C44.5886428,4.68617188 45.6734602,4.25098824 46.0600449,3.3472404 C46.4464437,2.44349255 45.9884551,1.41328713 45.0369621,1.04645417 C43.2369909,0.351997157 41.3321453,0 39.3750485,0 C31.073797,0 24.32,6.41471988 24.32,14.2995975 L24.32,51.2691895 C24.4174365,51.2675999 24.5113399,51.2637144 24.6113796,51.2637144 C25.9732587,51.2637144 27.0885714,51.4161346 28.0389488,51.6563334 Z M28.0389488,24.673888 L45.889903,24.673888 L45.889903,36.6838261 L28.0389488,36.6838261 L28.0389488,24.673888 L28.0389488,24.673888 Z" id="Shape" fill="#868686" fill-rule="nonzero"></path>
                    <path d="M1.80916202,54.72 C4.3236763,54.72 5.46494297,55.295168 6.90984773,56.0234 C8.52484773,56.83736 10.355362,57.76 13.8723525,57.76 C17.389343,57.76 19.2196763,56.83736 20.8346763,56.0234 C22.2794001,55.295168 23.4206668,54.72 25.9350001,54.72 C28.4495144,54.72 29.590962,55.295168 31.0356858,56.0234 C32.6506858,56.83736 34.481381,57.76 37.9983715,57.76 C41.515362,57.76 43.3460572,56.837512 44.9612381,56.0234 C46.4061429,55.295168 47.5474096,54.72 50.0621048,54.72 C52.576981,54.72 53.7182477,55.295168 55.1633334,56.0234 C56.7785143,56.83736 58.6090286,57.76 62.1262,57.76 C65.6433714,57.76 67.4740667,56.837512 69.0892476,56.0234 C70.5341524,55.295168 71.6756,54.72 74.1904762,54.72 C75.1898762,54.72 76,54.039344 76,53.2 C76,52.360656 75.1898762,51.68 74.1904762,51.68 C70.6731238,51.68 68.8426095,52.602488 67.2274286,53.4166 C65.7825238,54.144832 64.6412572,54.72 62.126381,54.72 C59.6115048,54.72 58.4702381,54.144832 57.0253334,53.4166 C55.4416381,52.618448 53.6465905,51.718152 50.2613334,51.683344 C50.1942,51.682736 50.1306858,51.680152 50.0622858,51.680152 C48.6957334,51.680152 47.5859524,51.820448 46.6422858,52.038568 C45.1573905,52.381784 44.0870572,52.918952 43.0994191,53.416752 C41.6545143,54.144984 40.5134286,54.720152 37.9987334,54.720152 C35.4842191,54.720152 34.3429524,54.144984 32.8980477,53.416752 C31.8914096,52.909528 30.8008096,52.3602 29.2708572,52.018048 C28.3458286,51.811328 27.2604763,51.680152 25.935362,51.680152 C25.8380096,51.680152 25.7466287,51.683344 25.6518096,51.684864 C22.3221048,51.733808 20.5433429,52.62544 18.9730382,53.416752 C17.5283144,54.144984 16.3870477,54.720152 13.8727144,54.720152 C11.3582001,54.720152 10.2169334,54.144984 8.77220963,53.416752 C7.15720963,52.602792 5.3265144,51.680152 1.80952393,51.680152 C0.810123929,51.680152 1.21207437e-07,52.360808 1.21207437e-07,53.200152 C-0.000361783554,54.039344 0.809762025,54.72 1.80916202,54.72 Z" id="Shape" fill="#868686" fill-rule="nonzero"></path>
                    <path d="M74.1901229,63.84 C70.6727873,63.84 68.8422817,64.762488 67.2271084,65.5766 C65.7822106,66.304832 64.6409493,66.88 62.1260851,66.88 C59.6112209,66.88 58.4699597,66.304832 57.0250618,65.5766 C55.4098885,64.76264 53.579383,63.84 50.0620473,63.84 C46.5448926,63.84 44.7143871,64.762488 43.0992138,65.5766 C41.6543159,66.304832 40.5132357,66.88 37.9985524,66.88 C35.4840501,66.88 34.3427888,66.304832 32.897891,65.5766 C31.2828987,64.76264 29.4522121,63.84 25.9352384,63.84 C22.4182647,63.84 20.5879401,64.76264 18.9729477,65.5766 C17.5282308,66.304832 16.3869696,66.88 13.8726482,66.88 C11.3581459,66.88 10.2168847,66.304832 8.77216775,65.5766 C7.15717544,64.76264 5.32648892,63.84 1.80951519,63.84 C0.810119952,63.84 0,64.520656 0,65.36 C0,66.199344 0.810119952,66.88 1.80951519,66.88 C4.3240175,66.88 5.46527874,67.455168 6.91017662,68.1834 C8.52516893,68.99736 10.3556745,69.92 13.8726482,69.92 C17.389622,69.92 19.2199466,68.99736 20.8349389,68.1834 C22.2796558,67.455168 23.420917,66.88 25.9352384,66.88 C28.4497407,66.88 29.5911829,67.455168 31.0358998,68.1834 C32.6508921,68.99736 34.4815787,69.92 37.9985524,69.92 C41.5155261,69.92 43.3462126,68.997512 44.9613859,68.1834 C46.4062838,67.455168 47.547545,66.88 50.0622283,66.88 C52.5770925,66.88 53.7183537,67.455168 55.1634326,68.1834 C56.7786058,68.99736 58.6091114,69.92 62.1262661,69.92 C65.6434207,69.92 67.4741073,68.997512 69.0892805,68.1834 C70.5341784,67.455168 71.6756206,66.88 74.1904848,66.88 C75.18988,66.88 76,66.199344 76,65.36 C75.9996381,64.520504 75.1895181,63.84 74.1901229,63.84 Z" id="Shape" fill="#868686" fill-rule="nonzero"></path>
                </g>
            </g>
        </g>
    </g>
</svg>