<?xml version="1.0" encoding="UTF-8"?>
<svg width="70px" height="70px" viewBox="0 0 70 70" version="1.1" xmlns="http://www.w3.org/2000/svg" xmlns:xlink="http://www.w3.org/1999/xlink">
    <!-- Generator: Sketch 46.2 (44496) - http://www.bohemiancoding.com/sketch -->
    <title>tv</title>
    <desc>Created with Sketch.</desc>
    <defs></defs>
    <g id="Icons" stroke="none" stroke-width="1" fill="none" fill-rule="evenodd">
        <g id="tv" transform="translate(-7.000000, -5.000000)" fill="#868686">
            <g transform="translate(12.000000, 10.000000)">
                <path d="M55.3636364,47.4545455 C55.3636364,48.9098182 54.1825455,50.0909091 52.7272727,50.0909091 L5.27272727,50.0909091 C3.81745455,50.0909091 2.63636364,48.9098182 2.63636364,47.4545455 L2.63636364,15.8181818 C2.63636364,14.3629091 3.81745455,13.1818182 5.27272727,13.1818182 L52.7272727,13.1818182 C54.1825455,13.1818182 55.3636364,14.3629091 55.3636364,15.8181818 L55.3636364,47.4545455 Z M52.7272727,10.5454545 L33.5002727,10.5454545 L38.8705455,5.17518182 C39.0880455,5.2345 39.3108182,5.27272727 39.5454545,5.27272727 C41.0007273,5.27272727 42.1818182,4.09163636 42.1818182,2.63636364 C42.1818182,1.18109091 41.0007273,0 39.5454545,0 C38.0901818,0 36.9090909,1.18109091 36.9090909,2.63636364 C36.9090909,2.87231818 36.9499545,3.09509091 37.0066364,3.31127273 L29.7724545,10.5454545 L28.2288636,10.5454545 L20.9933636,3.31127273 C21.0500455,3.09509091 21.0909091,2.87231818 21.0909091,2.63636364 C21.0909091,1.18109091 19.9098182,0 18.4545455,0 C16.9992727,0 15.8181818,1.18109091 15.8181818,2.63636364 C15.8181818,4.09163636 16.9992727,5.27272727 18.4545455,5.27272727 C18.6891818,5.27272727 18.9119545,5.2345 19.1294545,5.17518182 L24.4997273,10.5454545 L5.27272727,10.5454545 C2.36086364,10.5454545 0,12.9063182 0,15.8181818 L0,47.4545455 C0,50.3664091 2.36086364,52.7285909 5.27272727,52.7285909 L10.5454545,52.7285909 L10.5454545,56.6818182 C10.5454545,57.4107727 11.136,58 11.8636364,58 C12.5912727,58 13.1818182,57.4107727 13.1818182,56.6818182 L13.1818182,55.3636364 L44.8181818,55.3636364 L44.8181818,56.6818182 C44.8181818,57.4107727 45.4087273,58 46.1363636,58 C46.864,58 47.4545455,57.4107727 47.4545455,56.6818182 L47.4545455,52.7285909 L52.7272727,52.7285909 C55.6391364,52.7285909 58,50.3664091 58,47.4545455 L58,15.8181818 C58,12.9063182 55.6391364,10.5454545 52.7272727,10.5454545 L52.7272727,10.5454545 Z"></path>
            </g>
        </g>
    </g>
</svg>