<?xml version="1.0" encoding="UTF-8"?>
<svg width="80px" height="80px" viewBox="0 0 80 80" version="1.1" xmlns="http://www.w3.org/2000/svg" xmlns:xlink="http://www.w3.org/1999/xlink">
    <!-- Generator: Sketch 46.2 (44496) - http://www.bohemiancoding.com/sketch -->
    <title>twitter</title>
    <desc>Created with Sketch.</desc>
    <defs></defs>
    <g id="Icons" stroke="none" stroke-width="1" fill="none" fill-rule="evenodd">
        <g id="twitter" fill-rule="nonzero" fill="#868686">
            <g transform="translate(22.000000, 25.000000)" id="Page-1">
                <path d="M36,3.5 C34.7,4.1 33.3,4.5 31.8,4.7 C33.3,3.8 34.5,2.3 35,0.5 C33.6,1.4 32,2 30.3,2.3 C29,0.9 27,0 24.9,0 C20.8,0 17.5,3.4 17.5,7.6 C17.5,8.2 17.6,8.8 17.7,9.3 C11.6,9 6.2,6 2.5,1.4 C1.9,2.5 1.5,3.8 1.5,5.2 C1.5,7.8 2.8,10.1 4.8,11.5 C3.6,11.5 2.5,11.1 1.5,10.5 L1.5,10.6 C1.5,14.3 4,17.3 7.4,18 C6.8,18.2 6.1,18.3 5.5,18.3 C5,18.3 4.6,18.3 4.1,18.2 C5,21.2 7.8,23.4 11,23.5 C8.5,25.5 5.3,26.7 1.8,26.7 C1.2,26.7 0.6,26.7 0,26.6 C3.3,28.8 7.1,30 11.3,30 C24.9,30 32.3,18.5 32.3,8.4 L32.3,7.4 C33.8,6.4 35,5.1 36,3.5"></path>
            </g>
        </g>
    </g>
</svg>