<?xml version="1.0" encoding="UTF-8"?>
<svg width="80px" height="80px" viewBox="0 0 80 80" version="1.1" xmlns="http://www.w3.org/2000/svg" xmlns:xlink="http://www.w3.org/1999/xlink">
    <!-- Generator: Sketch 46.2 (44496) - http://www.bohemiancoding.com/sketch -->
    <title>upload</title>
    <desc>Created with Sketch.</desc>
    <defs></defs>
    <g id="Icons" stroke="none" stroke-width="1" fill="none" fill-rule="evenodd">
        <g id="upload" fill-rule="nonzero" fill="#868686">
            <g id="Upload" transform="translate(4.000000, 6.000000)">
                <path d="M0,34.64 C0,44.2329961 7.85946821,52 17.5428571,52 L26.1624658,52 C27.2670353,52 28.1624658,51.1045695 28.1624658,50 C28.1624658,48.8954305 27.2670353,48 26.1624658,48 L17.5428571,48 C10.0580801,48 4,42.0131914 4,34.64 C4,27.5470554 8.9656324,22.3696939 16.1180266,21.9972946 C17.1071444,21.9457948 17.9095841,21.1780912 18.0047763,20.1922186 C18.8534899,11.4023855 27.0082988,4 36,4 C45.6307977,4 53.4285714,11.7060352 53.4285714,21.2 L53.4285714,24.08 C53.4285714,25.1845695 54.3240019,26.08 55.4285714,26.08 L56.8857143,26.08 C63.0292283,26.08 68,30.992292 68,37.04 C68,43.087708 63.0292283,48 56.8857143,48 L46.0579383,48 C44.9533688,48 44.0579383,48.8954305 44.0579383,50 C44.0579383,51.1045695 44.9533688,52 46.0579383,52 L56.8857143,52 C65.2278403,52 72,45.3075127 72,37.04 C72,28.7724873 65.2278403,22.08 56.8857143,22.08 L55.4285714,22.08 L55.4285714,24.08 L57.4285714,24.08 L57.4285714,21.2 C57.4285714,9.48623043 47.8294097,0 36,0 C25.5133645,0 16.083069,8.07357571 14.2520357,18.1608776 C5.8593719,19.3344624 0,25.9699716 0,34.64 Z M38,33.9914161 L44.6620877,39.5260663 C45.4831078,40.2081435 46.7476875,40.1467066 47.4866055,39.3888429 C48.2255235,38.6309792 48.1589667,37.4636765 47.3379467,36.7815992 L37.3379467,28.4739179 C36.5773367,27.8420274 35.4226977,27.8420274 34.6620877,28.4739179 L24.6620877,36.7815992 C23.8410677,37.4636765 23.7745109,38.6309792 24.5134289,39.3888429 C25.2523469,40.1467066 26.5169266,40.2081435 27.3379467,39.5260663 L34,33.9914446 L34,65.5770231 C34,66.9151963 34.8954305,68 36,68 C37.1045695,68 38,66.9151963 38,65.5770231 L38,33.9914161 Z" id="Oval-3"></path>
            </g>
        </g>
    </g>
</svg>